<svg width="304" height="293" viewBox="0 0 304 293" fill="none" xmlns="http://www.w3.org/2000/svg">
<rect x="11.5" y="6.5" width="280" height="280" rx="40.5" fill="#1E1E1E" stroke="#D9D9D9" stroke-width="11"/>
<path d="M114.731 225.72L114.736 225.726C123.796 235.134 136.398 239.795 152.432 239.795C168.493 239.795 181.349 234.605 190.91 224.175L190.914 224.17C200.461 213.582 205.2 199.638 205.2 182.419C205.2 173.801 204.823 168.091 203.289 163.387C201.743 158.649 199.048 154.999 194.576 150.44C190.04 145.641 183.828 143.603 176.833 142.745C171.318 142.069 165.219 142.118 158.969 142.168C157.31 142.182 155.64 142.195 153.968 142.195C151.457 142.195 148.954 142.133 146.485 142.072C141.241 141.943 136.152 141.817 131.471 142.295C124.529 143.005 118.284 145.051 113.408 150.457C108.674 155.622 105.599 160.136 103.724 165.549C101.854 170.949 101.2 177.182 101.2 185.747C101.2 202.782 105.677 216.144 114.731 225.72ZM181.328 187.027C181.328 199.499 179.075 208.708 174.695 214.783C170.35 220.809 163.83 223.859 154.992 223.859C144.869 223.859 137.388 220.421 132.405 213.626C127.388 206.784 124.816 196.425 124.816 182.419C124.816 178.856 124.683 176.463 124.547 174.784C124.487 174.035 124.429 173.452 124.381 172.98C124.319 172.359 124.276 171.929 124.272 171.562C124.269 171.272 124.293 171.08 124.341 170.911C124.39 170.739 124.476 170.551 124.642 170.282C124.849 169.947 125.128 169.566 125.526 169.021C125.75 168.715 126.011 168.358 126.318 167.929C130.267 169.071 134.83 169.046 139.456 168.743C141.098 168.635 142.744 168.494 144.381 168.353C147.639 168.073 150.865 167.795 153.968 167.795C158.637 167.795 162.632 167.355 165.984 166.985C166.438 166.935 166.879 166.887 167.309 166.84C170.974 166.447 173.662 166.263 175.681 166.894C176.659 167.2 177.47 167.697 178.154 168.469C178.846 169.25 179.438 170.347 179.916 171.893C180.877 175.007 181.328 179.781 181.328 187.027Z" fill="#E23744" stroke="#E23744" stroke-width="1.6"/>
<path d="M189.59 129.456C164.828 118.797 145.557 115.378 118.144 118.481L117.795 102.879C93.1067 99.5659 102.001 73.8326 117.46 74.3887C123.809 74.6171 127.303 79.1082 123.842 83.1436C132.64 77.0669 143.202 77.2871 150.264 82.0648C156.507 70.5891 167.519 63.9323 182.962 70.2259C195.961 75.5236 207.928 93.4096 188.472 115.566L189.59 129.456Z" fill="#E23744" stroke="#E23744" stroke-width="0.0640258"/>
<path d="M118.24 120.131C144.959 117.751 161.12 120.358 189.915 131.046L190.717 135.94C159.879 127.445 145.658 134.045 121.102 134.699L118.24 120.131Z" fill="#E23744" stroke="#E23744" stroke-width="0.0647414"/>
</svg>
