<svg width="151" height="89" viewBox="0 0 151 89" fill="none" xmlns="http://www.w3.org/2000/svg">
<path d="M84.9952 47.7006C73.9015 42.9244 65.2677 41.3926 52.9864 42.7828L52.8298 35.7922C41.7691 34.3075 45.7536 22.7772 52.6796 23.0264C55.5242 23.1287 57.0895 25.141 55.5392 26.9492C59.4807 24.2264 64.2125 24.325 67.3766 26.4658C70.1737 21.3239 75.1069 18.3411 82.0258 21.1611C87.8497 23.5349 93.2108 31.5491 84.4944 41.4765L84.9952 47.7006Z" fill="#E23744" stroke="#E23744" stroke-width="0.0286864"/>
<path d="M53.0262 43.5126C64.9968 42.446 72.2371 43.614 85.1378 48.4031L85.4969 50.5958C71.6813 46.7897 65.3098 49.7467 54.3083 50.0399L53.0262 43.5126Z" fill="#E23744" stroke="#E23744" stroke-width="0.029007"/>
<path d="M141.818 87.5481C137.511 87.5481 134.157 86.4601 131.754 84.2841C129.351 82.0628 128.15 78.7761 128.15 74.4241V42.3281H138.758V74.2881C138.758 75.8295 139.166 77.0308 139.982 77.8921C140.798 78.7081 141.909 79.1161 143.314 79.1161C144.991 79.1161 146.419 78.6628 147.598 77.7561L150.454 85.2361C149.366 86.0068 148.051 86.5961 146.51 87.0041C145.014 87.3668 143.45 87.5481 141.818 87.5481ZM122.506 59.3961V51.2361H147.87V59.3961H122.506Z" fill="white"/>
<path d="M95.8965 87.003V50.419H106.028V60.755L104.6 57.763C105.688 55.179 107.434 53.2297 109.836 51.915C112.239 50.555 115.163 49.875 118.608 49.875V59.667C118.155 59.6217 117.747 59.599 117.384 59.599C117.022 59.5537 116.636 59.531 116.228 59.531C113.327 59.531 110.97 60.3697 109.156 62.047C107.388 63.679 106.504 66.2403 106.504 69.731V87.003H95.8965Z" fill="white"/>
<path d="M75.6891 88.1593V81.0193L75.0091 79.4553V66.6712C75.0091 64.4046 74.3065 62.6366 72.9011 61.3672C71.5411 60.0979 69.4331 59.4632 66.5771 59.4632C64.6278 59.4632 62.7011 59.7806 60.7971 60.4152C58.9385 61.0046 57.3518 61.8206 56.0371 62.8632L52.2291 55.4512C54.2238 54.0459 56.6265 52.9579 59.4371 52.1872C62.2478 51.4166 65.1038 51.0312 68.0051 51.0312C73.5811 51.0312 80.4173 51.3707 83.5 54C86.5827 56.6293 85.6171 61.7073 85.6171 67.2833V88.1593H75.6891ZM64.5371 88.7033C61.6811 88.7033 59.2331 88.2272 57.1931 87.2752C55.1531 86.2779 53.5891 84.9406 52.5011 83.2633C51.4131 81.5859 50.8691 79.7046 50.8691 77.6192C50.8691 75.4432 51.3905 73.5393 52.4331 71.9073C53.5211 70.2753 55.2211 69.0059 57.5331 68.0992C59.8451 67.1472 62.8598 66.6712 66.5771 66.6712H76.3011V72.8593H67.7331C65.2398 72.8593 63.5171 73.2673 62.5651 74.0833C61.6585 74.8993 61.2051 75.9193 61.2051 77.1433C61.2051 78.5033 61.7265 79.5913 62.7691 80.4073C63.8571 81.1779 65.3305 81.5632 67.1891 81.5632C68.9571 81.5632 70.5438 81.1553 71.9491 80.3393C73.3545 79.4779 74.3745 78.2312 75.0091 76.5992L76.6411 81.4952C75.8705 83.8526 74.4651 85.6433 72.4251 86.8673C70.3851 88.0913 67.7558 88.7033 64.5371 88.7033Z" fill="white"/>
<path d="M26.4243 87.8179C22.7523 87.8179 19.3297 87.2286 16.1563 86.0499C13.0283 84.8259 10.3083 83.1033 7.99634 80.8819C5.68434 78.6606 3.87101 76.0539 2.55634 73.0619C1.28701 70.0699 0.652344 66.7833 0.652344 63.2019C0.652344 59.6206 1.28701 56.3339 2.55634 53.3419C3.87101 50.3499 5.68434 47.7433 7.99634 45.5219C10.3537 43.3006 13.0963 41.6006 16.2243 40.4219C19.3523 39.1979 22.775 38.5859 26.4923 38.5859C30.6177 38.5859 34.335 39.3113 37.6443 40.7619C40.999 42.1673 43.8097 44.2526 46.0763 47.0179L39.0043 53.5459C37.3723 51.6873 35.559 50.3046 33.5643 49.3979C31.5697 48.4459 29.3937 47.9699 27.0363 47.9699C24.815 47.9699 22.775 48.3326 20.9163 49.0579C19.0577 49.7833 17.4483 50.8259 16.0883 52.1859C14.7283 53.5459 13.663 55.1553 12.8923 57.0139C12.167 58.8726 11.8043 60.9353 11.8043 63.2019C11.8043 65.4686 12.167 67.5313 12.8923 69.3899C13.663 71.2486 14.7283 72.8579 16.0883 74.2179C17.4483 75.5779 19.0577 76.6206 20.9163 77.3459C22.775 78.0713 24.815 78.4339 27.0363 78.4339C29.3937 78.4339 31.5697 77.9806 33.5643 77.0739C35.559 76.1219 37.3723 74.6939 39.0043 72.7899L46.0763 79.3179C43.8097 82.0833 40.999 84.1913 37.6443 85.6419C34.335 87.0926 30.595 87.8179 26.4243 87.8179Z" fill="white"/>
</svg>
