<svg width="190" height="46" viewBox="0 0 190 46" fill="none" xmlns="http://www.w3.org/2000/svg">
<rect y="5" width="34.1" height="35.2" rx="4.4" fill="url(#paint0_radial_2259_4131)"/>
<rect x="1.55078" y="6.60156" width="31" height="32" rx="15.5" fill="#E23744"/>
<path fill-rule="evenodd" clip-rule="evenodd" d="M20.1049 13.5415C20.0275 13.5755 19.8849 13.6885 19.7881 13.7927L19.6122 13.982L19.5934 19.7349L19.5746 25.4878L19.2113 25.6413C19.0115 25.7257 18.8339 25.7807 18.8167 25.7634C18.7995 25.7462 18.8084 25.3642 18.8365 24.9145C18.8746 24.3047 18.9133 24.0871 18.9885 24.0582C19.3086 23.9354 19.4203 22.8769 19.1495 22.5326C19.0622 22.4216 18.9337 22.3472 18.8296 22.3472C18.6708 22.3472 18.6594 22.3268 18.6991 22.1151C18.7585 21.7985 18.5604 21.3289 18.2843 21.132C18.1283 21.0207 17.9572 20.9729 17.7009 20.9691C17.4187 20.9648 17.2904 20.9232 17.122 20.7815C16.8412 20.5452 16.4552 20.4208 16.1546 20.4696C15.9314 20.5057 15.9075 20.4906 15.8065 20.2487C15.2831 18.9957 13.4154 18.9919 12.8514 20.2426C12.7339 20.5034 12.713 20.5167 12.4885 20.4745C12.0024 20.3833 11.2784 20.8508 11.1571 21.3341C11.1321 21.4336 11.1287 21.7022 11.1494 21.9311L11.1871 22.3472H10.9935C10.6577 22.3472 10.567 22.5307 10.567 23.2099C10.567 23.7715 10.5796 23.8251 10.7428 23.9535C10.9112 24.086 10.9215 24.1391 10.9854 25.2066L11.0522 26.3213L10.5632 26.8256C10.1066 27.2965 10.0742 27.3507 10.0742 27.6439C10.0742 28.1381 10.4752 28.4751 10.9541 28.3835C11.1629 28.3436 11.1743 28.3948 11.2331 29.6304C11.2806 30.6274 11.4034 30.9532 11.848 31.2613L12.1386 31.4628L17.6219 31.4813L23.1053 31.5L23.3165 31.2888C23.5228 31.0825 23.5266 31.0661 23.4836 30.5663C23.4176 29.7995 23.1713 28.0088 23.0574 27.4672C22.8701 26.5768 22.4551 26.0321 21.6943 25.6781L21.2678 25.4796L21.267 21.973C21.2666 19.6918 21.2409 18.4189 21.1935 18.3302C21.1056 18.1661 20.8058 18.1495 20.7459 18.3055C20.7224 18.3667 20.7032 19.9822 20.7032 21.8954V25.374H20.4217H20.1401V20.9042V16.4343H20.4217H20.7032V16.8426C20.7032 17.2645 20.7821 17.4198 20.9964 17.4198C21.2285 17.4198 21.2663 17.1787 21.2663 15.6976C21.2663 14.169 21.2268 13.9302 20.9296 13.6655C20.7637 13.5178 20.3131 13.4501 20.1049 13.5415ZM20.187 14.088C20.1612 14.1138 20.1401 14.5256 20.1401 15.0031V15.8712H20.4217H20.7032V15.0675C20.7032 14.6254 20.684 14.2137 20.6605 14.1524C20.618 14.0418 20.2793 13.9957 20.187 14.088ZM13.7763 19.9803C13.4622 20.1704 13.2491 20.5188 13.2448 20.8489C13.2407 21.156 13.0399 21.2658 12.7532 21.1174C12.3369 20.9022 11.9142 21.0024 11.7291 21.3603C11.5864 21.6363 11.5956 21.8442 11.7628 22.1184L11.9023 22.3472H14.9629C17.9167 22.3472 18.026 22.3424 18.0963 22.211C18.2571 21.9105 18.1338 21.5901 17.8172 21.4862C17.7591 21.4671 17.5874 21.5003 17.4355 21.5598C17.1683 21.6647 17.1559 21.663 17.0484 21.5073C16.6967 20.9979 16.3771 20.8931 15.8872 21.1267C15.5813 21.2727 15.4239 21.1738 15.4239 20.8355C15.4239 20.5576 15.1847 20.1878 14.8663 19.9732C14.5503 19.7602 14.1354 19.7629 13.7763 19.9803ZM11.0597 23.1919V23.5438H12.1336C12.7243 23.5438 13.3159 23.5749 13.4485 23.6129C13.6797 23.6792 13.7056 23.6665 14.0939 23.2962C14.4479 22.9584 14.534 22.9103 14.7841 22.9103C15.0002 22.9103 15.1257 22.9603 15.2996 23.1157C15.4954 23.2905 15.5295 23.3686 15.5295 23.6409C15.5295 23.9298 15.4957 23.9951 15.1802 24.3154C14.8725 24.6278 14.8499 24.6701 14.9901 24.6701C15.2695 24.6701 15.5441 24.4728 15.7654 24.1131C15.8837 23.9208 16.0533 23.7225 16.1422 23.6726C16.2509 23.6115 16.7011 23.5733 17.518 23.5558L18.7323 23.5299V23.1849V22.8399H14.896H11.0597V23.1919ZM12.6272 25.4633C11.4941 26.5964 10.567 27.5773 10.567 27.6429C10.567 27.7085 10.6328 27.7975 10.7133 27.8406C10.8446 27.9109 10.9442 27.8353 11.6848 27.104C12.1386 26.6558 12.5625 26.289 12.627 26.289C12.6914 26.289 12.7802 26.3564 12.8242 26.4388C12.8965 26.5737 12.8437 26.6493 12.2882 27.2074L11.672 27.8264L11.7226 29.0424C11.7776 30.3638 11.8432 30.6342 12.1593 30.8414C12.3404 30.96 12.5543 30.97 14.9053 30.97C17.3811 30.97 17.4606 30.9658 17.6536 30.8229C17.7629 30.742 17.8898 30.5995 17.9355 30.5062C17.9863 30.4025 18.075 29.2551 18.1637 27.5561C18.2434 26.0268 18.3201 24.6252 18.3341 24.4413L18.3596 24.1069H17.3878H16.4159L16.2895 24.295C15.8158 24.9993 15.2993 25.2865 14.6745 25.1928C14.3574 25.1452 14.3521 25.1478 13.9381 25.5575C13.5903 25.9017 13.5008 25.9574 13.3991 25.8937C13.1289 25.7243 13.2231 25.5644 14.1196 24.6711C14.9946 23.7993 15.1534 23.5468 14.8902 23.4458C14.829 23.4222 14.7583 23.403 14.7332 23.403C14.708 23.403 13.7604 24.3301 12.6272 25.4633ZM11.4882 24.6173C11.4916 24.898 11.5153 25.2789 11.541 25.4637L11.5876 25.7999L12.4312 24.9534L13.2748 24.1069H12.3784H11.482L11.4882 24.6173ZM19.7173 26.0028C19.4431 26.0863 19.0649 26.2909 18.8907 26.4503C18.7644 26.5658 18.7323 26.6711 18.7323 26.97V27.3449H20.5976C21.8419 27.3449 22.463 27.3206 22.463 27.2717C22.463 27.2314 22.4015 27.078 22.3264 26.9307C22.0111 26.3128 21.2703 25.9328 20.4014 25.9431C20.1222 25.9465 19.8143 25.9733 19.7173 26.0028ZM18.6604 28.2072C18.6558 29.1106 18.5207 30.5203 18.42 30.7151C18.2728 30.9995 18.2785 31.0182 18.5034 30.9923C18.6836 30.9716 18.7005 30.9408 18.7497 30.5477C18.8388 29.8338 19.0233 28.9333 19.0995 28.8407C19.2001 28.7184 19.4169 28.7307 19.4908 28.8629C19.5287 28.9306 19.5052 29.2193 19.4296 29.6125C19.3621 29.9641 19.2963 30.4135 19.2835 30.611L19.2602 30.97L19.7001 30.991L20.1401 31.0119V29.9668C20.1401 28.8894 20.1731 28.7527 20.4333 28.7527C20.6506 28.7527 20.7032 28.9989 20.7032 30.0151V31.0052H21.1359H21.5685L21.5252 30.4921C21.5013 30.2099 21.4329 29.7465 21.3731 29.4623C21.2537 28.8949 21.3027 28.7277 21.5769 28.7669C21.7706 28.7946 21.8692 29.1076 22.0182 30.1694L22.1364 31.0115L22.5284 30.9908L22.9205 30.97L22.9098 30.4069C22.9002 29.9083 22.7293 28.4971 22.6264 28.0664L22.5885 27.908H20.6252H18.6619L18.6604 28.2072Z" fill="black"/>
<path d="M60.1188 15.6616H61.5204V29.1016H60.1188V15.6616ZM51.7092 29.1016H50.2884V15.6616H51.7092V29.1016ZM60.2532 22.9H51.5556V21.652H60.2532V22.9ZM69.728 29.1976C68.7552 29.1976 67.8784 28.98 67.0976 28.5448C66.3296 28.0968 65.7216 27.4888 65.2736 26.7208C64.8256 25.94 64.6016 25.0504 64.6016 24.052C64.6016 23.0408 64.8256 22.1512 65.2736 21.3832C65.7216 20.6152 66.3296 20.0136 67.0976 19.5784C67.8656 19.1432 68.7424 18.9256 69.728 18.9256C70.7264 18.9256 71.6096 19.1432 72.3776 19.5784C73.1584 20.0136 73.7664 20.6152 74.2016 21.3832C74.6496 22.1512 74.8736 23.0408 74.8736 24.052C74.8736 25.0504 74.6496 25.94 74.2016 26.7208C73.7664 27.4888 73.1584 28.0968 72.3776 28.5448C71.5968 28.98 70.7136 29.1976 69.728 29.1976ZM69.728 27.988C70.4576 27.988 71.104 27.828 71.6672 27.508C72.2304 27.1752 72.672 26.7144 72.992 26.1256C73.3248 25.524 73.4912 24.8328 73.4912 24.052C73.4912 23.2584 73.3248 22.5672 72.992 21.9784C72.672 21.3896 72.2304 20.9352 71.6672 20.6152C71.104 20.2824 70.464 20.116 69.7472 20.116C69.0304 20.116 68.3904 20.2824 67.8272 20.6152C67.264 20.9352 66.816 21.3896 66.4832 21.9784C66.1504 22.5672 65.984 23.2584 65.984 24.052C65.984 24.8328 66.1504 25.524 66.4832 26.1256C66.816 26.7144 67.264 27.1752 67.8272 27.508C68.3904 27.828 69.024 27.988 69.728 27.988ZM81.8231 29.1976C80.9655 29.1976 80.2167 29.0376 79.5767 28.7176C78.9367 28.3976 78.4375 27.9176 78.0791 27.2776C77.7335 26.6376 77.5607 25.8376 77.5607 24.8776V19.0216H78.9239V24.724C78.9239 25.7992 79.1863 26.612 79.7111 27.1624C80.2487 27.7 80.9975 27.9688 81.9575 27.9688C82.6615 27.9688 83.2695 27.828 83.7815 27.5464C84.3063 27.252 84.7031 26.8296 84.9719 26.2792C85.2535 25.7288 85.3943 25.0696 85.3943 24.3016V19.0216H86.7575V29.1016H85.4519V26.3368L85.6631 26.836C85.3431 27.5784 84.8439 28.1608 84.1655 28.5832C83.4999 28.9928 82.7191 29.1976 81.8231 29.1976ZM93.2639 29.1976C92.4319 29.1976 91.6447 29.0824 90.9023 28.852C90.1599 28.6088 89.5775 28.308 89.1551 27.9496L89.7695 26.8744C90.1791 27.1816 90.7039 27.4504 91.3439 27.6808C91.9839 27.8984 92.6559 28.0072 93.3599 28.0072C94.3199 28.0072 95.0111 27.86 95.4335 27.5656C95.8559 27.2584 96.0671 26.8552 96.0671 26.356C96.0671 25.9848 95.9455 25.6968 95.7023 25.492C95.4719 25.2744 95.1647 25.1144 94.7807 25.012C94.3967 24.8968 93.9679 24.8008 93.4943 24.724C93.0207 24.6472 92.5471 24.5576 92.0735 24.4552C91.6127 24.3528 91.1903 24.2056 90.8063 24.0136C90.4223 23.8088 90.1087 23.5336 89.8655 23.188C89.6351 22.8424 89.5199 22.3816 89.5199 21.8056C89.5199 21.2552 89.6735 20.7624 89.9807 20.3272C90.2879 19.892 90.7359 19.5528 91.3247 19.3096C91.9263 19.0536 92.6559 18.9256 93.5135 18.9256C94.1663 18.9256 94.8191 19.0152 95.4719 19.1944C96.1247 19.3608 96.6623 19.5848 97.0847 19.8664L96.4895 20.9608C96.0415 20.6536 95.5615 20.436 95.0495 20.308C94.5375 20.1672 94.0255 20.0968 93.5135 20.0968C92.6047 20.0968 91.9327 20.2568 91.4975 20.5768C91.0751 20.884 90.8639 21.2808 90.8639 21.7672C90.8639 22.1512 90.9791 22.452 91.2095 22.6696C91.4527 22.8872 91.7663 23.06 92.1503 23.188C92.5471 23.3032 92.9759 23.3992 93.4367 23.476C93.9103 23.5528 94.3775 23.6488 94.8383 23.764C95.3119 23.8664 95.7407 24.0136 96.1247 24.2056C96.5215 24.3848 96.8351 24.6472 97.0655 24.9928C97.3087 25.3256 97.4303 25.7672 97.4303 26.3176C97.4303 26.9064 97.2639 27.4184 96.9311 27.8536C96.6111 28.276 96.1375 28.6088 95.5103 28.852C94.8959 29.0824 94.1471 29.1976 93.2639 29.1976ZM104.213 29.1976C103.164 29.1976 102.242 28.98 101.448 28.5448C100.655 28.0968 100.034 27.4888 99.5861 26.7208C99.1381 25.94 98.9141 25.0504 98.9141 24.052C98.9141 23.0536 99.1253 22.1704 99.5477 21.4024C99.9829 20.6344 100.572 20.0328 101.314 19.5976C102.069 19.1496 102.914 18.9256 103.848 18.9256C104.796 18.9256 105.634 19.1432 106.364 19.5784C107.106 20.0008 107.688 20.6024 108.111 21.3832C108.533 22.1512 108.744 23.0408 108.744 24.052C108.744 24.116 108.738 24.1864 108.725 24.2632C108.725 24.3272 108.725 24.3976 108.725 24.4744H99.9509V23.4568H107.996L107.458 23.86C107.458 23.1304 107.298 22.484 106.978 21.9208C106.671 21.3448 106.248 20.8968 105.711 20.5768C105.173 20.2568 104.552 20.0968 103.848 20.0968C103.157 20.0968 102.536 20.2568 101.986 20.5768C101.436 20.8968 101.007 21.3448 100.7 21.9208C100.392 22.4968 100.239 23.156 100.239 23.8984V24.1096C100.239 24.8776 100.405 25.556 100.738 26.1448C101.084 26.7208 101.557 27.1752 102.159 27.508C102.773 27.828 103.471 27.988 104.252 27.988C104.866 27.988 105.436 27.8792 105.96 27.6616C106.498 27.444 106.959 27.1112 107.343 26.6632L108.111 27.5464C107.663 28.084 107.1 28.4936 106.421 28.7752C105.756 29.0568 105.02 29.1976 104.213 29.1976ZM122.669 29.2168C121.658 29.2168 120.723 29.0504 119.866 28.7176C119.008 28.372 118.266 27.892 117.639 27.2776C117.011 26.6632 116.519 25.94 116.16 25.108C115.815 24.276 115.642 23.3672 115.642 22.3816C115.642 21.396 115.815 20.4872 116.16 19.6552C116.519 18.8232 117.011 18.1 117.639 17.4856C118.279 16.8712 119.027 16.3976 119.885 16.0648C120.743 15.7192 121.677 15.5464 122.688 15.5464C123.661 15.5464 124.576 15.7128 125.434 16.0456C126.291 16.3656 127.015 16.852 127.603 17.5048L126.701 18.4072C126.151 17.844 125.543 17.4408 124.877 17.1976C124.211 16.9416 123.495 16.8136 122.727 16.8136C121.92 16.8136 121.171 16.9544 120.48 17.236C119.789 17.5048 119.187 17.8952 118.675 18.4072C118.163 18.9064 117.76 19.4952 117.466 20.1736C117.184 20.8392 117.043 21.5752 117.043 22.3816C117.043 23.188 117.184 23.9304 117.466 24.6088C117.76 25.2744 118.163 25.8632 118.675 26.3752C119.187 26.8744 119.789 27.2648 120.48 27.5464C121.171 27.8152 121.92 27.9496 122.727 27.9496C123.495 27.9496 124.211 27.8216 124.877 27.5656C125.543 27.3096 126.151 26.9 126.701 26.3368L127.603 27.2392C127.015 27.892 126.291 28.3848 125.434 28.7176C124.576 29.0504 123.655 29.2168 122.669 29.2168ZM130.344 29.1016V14.8552H131.707V29.1016H130.344ZM139.782 29.1976C138.732 29.1976 137.811 28.98 137.017 28.5448C136.224 28.0968 135.603 27.4888 135.155 26.7208C134.707 25.94 134.483 25.0504 134.483 24.052C134.483 23.0536 134.694 22.1704 135.116 21.4024C135.552 20.6344 136.14 20.0328 136.883 19.5976C137.638 19.1496 138.483 18.9256 139.417 18.9256C140.364 18.9256 141.203 19.1432 141.932 19.5784C142.675 20.0008 143.257 20.6024 143.68 21.3832C144.102 22.1512 144.313 23.0408 144.313 24.052C144.313 24.116 144.307 24.1864 144.294 24.2632C144.294 24.3272 144.294 24.3976 144.294 24.4744H135.52V23.4568H143.564L143.027 23.86C143.027 23.1304 142.867 22.484 142.547 21.9208C142.24 21.3448 141.817 20.8968 141.28 20.5768C140.742 20.2568 140.121 20.0968 139.417 20.0968C138.726 20.0968 138.105 20.2568 137.555 20.5768C137.004 20.8968 136.576 21.3448 136.268 21.9208C135.961 22.4968 135.808 23.156 135.808 23.8984V24.1096C135.808 24.8776 135.974 25.556 136.307 26.1448C136.652 26.7208 137.126 27.1752 137.728 27.508C138.342 27.828 139.04 27.988 139.82 27.988C140.435 27.988 141.004 27.8792 141.529 27.6616C142.067 27.444 142.528 27.1112 142.912 26.6632L143.68 27.5464C143.232 28.084 142.668 28.4936 141.99 28.7752C141.324 29.0568 140.588 29.1976 139.782 29.1976ZM153.123 29.1016V26.8744L153.066 26.5096V22.7848C153.066 21.9272 152.823 21.268 152.336 20.8072C151.863 20.3464 151.152 20.116 150.205 20.116C149.552 20.116 148.931 20.2248 148.343 20.4424C147.754 20.66 147.255 20.948 146.845 21.3064L146.231 20.2888C146.743 19.8536 147.357 19.5208 148.074 19.2904C148.791 19.0472 149.546 18.9256 150.339 18.9256C151.645 18.9256 152.65 19.252 153.354 19.9048C154.071 20.5448 154.429 21.524 154.429 22.8424V29.1016H153.123ZM149.648 29.1976C148.893 29.1976 148.234 29.076 147.671 28.8328C147.12 28.5768 146.698 28.2312 146.403 27.796C146.109 27.348 145.962 26.836 145.962 26.26C145.962 25.7352 146.083 25.2616 146.327 24.8392C146.583 24.404 146.992 24.0584 147.555 23.8024C148.131 23.5336 148.899 23.3992 149.859 23.3992H153.335V24.4168H149.898C148.925 24.4168 148.247 24.5896 147.863 24.9352C147.491 25.2808 147.306 25.7096 147.306 26.2216C147.306 26.7976 147.53 27.2584 147.978 27.604C148.426 27.9496 149.053 28.1224 149.859 28.1224C150.627 28.1224 151.287 27.9496 151.837 27.604C152.4 27.2456 152.81 26.7336 153.066 26.068L153.373 27.0088C153.117 27.6744 152.669 28.2056 152.029 28.6024C151.402 28.9992 150.608 29.1976 149.648 29.1976ZM163.277 18.9256C164.096 18.9256 164.813 19.0856 165.428 19.4056C166.055 19.7128 166.541 20.1864 166.887 20.8264C167.245 21.4664 167.424 22.2728 167.424 23.2456V29.1016H166.061V23.38C166.061 22.3176 165.792 21.5176 165.255 20.98C164.73 20.4296 163.988 20.1544 163.028 20.1544C162.311 20.1544 161.684 20.3016 161.146 20.596C160.621 20.8776 160.212 21.2936 159.917 21.844C159.636 22.3816 159.495 23.0344 159.495 23.8024V29.1016H158.132V19.0216H159.437V21.7864L159.226 21.268C159.546 20.5384 160.058 19.9688 160.762 19.5592C161.466 19.1368 162.304 18.9256 163.277 18.9256ZM175.388 29.1976C174.339 29.1976 173.417 28.98 172.623 28.5448C171.83 28.0968 171.209 27.4888 170.761 26.7208C170.313 25.94 170.089 25.0504 170.089 24.052C170.089 23.0536 170.3 22.1704 170.723 21.4024C171.158 20.6344 171.747 20.0328 172.489 19.5976C173.244 19.1496 174.089 18.9256 175.023 18.9256C175.971 18.9256 176.809 19.1432 177.539 19.5784C178.281 20.0008 178.863 20.6024 179.286 21.3832C179.708 22.1512 179.919 23.0408 179.919 24.052C179.919 24.116 179.913 24.1864 179.9 24.2632C179.9 24.3272 179.9 24.3976 179.9 24.4744H171.126V23.4568H179.171L178.633 23.86C178.633 23.1304 178.473 22.484 178.153 21.9208C177.846 21.3448 177.423 20.8968 176.886 20.5768C176.348 20.2568 175.727 20.0968 175.023 20.0968C174.332 20.0968 173.711 20.2568 173.161 20.5768C172.611 20.8968 172.182 21.3448 171.875 21.9208C171.567 22.4968 171.414 23.156 171.414 23.8984V24.1096C171.414 24.8776 171.58 25.556 171.913 26.1448C172.259 26.7208 172.732 27.1752 173.334 27.508C173.948 27.828 174.646 27.988 175.427 27.988C176.041 27.988 176.611 27.8792 177.135 27.6616C177.673 27.444 178.134 27.1112 178.518 26.6632L179.286 27.5464C178.838 28.084 178.275 28.4936 177.596 28.7752C176.931 29.0568 176.195 29.1976 175.388 29.1976ZM182.694 29.1016V19.0216H184V21.7672L183.865 21.2872C184.147 20.5192 184.621 19.9368 185.286 19.54C185.952 19.1304 186.777 18.9256 187.763 18.9256V20.2504C187.712 20.2504 187.661 20.2504 187.609 20.2504C187.558 20.2376 187.507 20.2312 187.456 20.2312C186.393 20.2312 185.561 20.5576 184.96 21.2104C184.358 21.8504 184.057 22.7656 184.057 23.956V29.1016H182.694Z" fill="white"/>
<defs>
<radialGradient id="paint0_radial_2259_4131" cx="0" cy="0" r="1" gradientUnits="userSpaceOnUse" gradientTransform="translate(17.05 22.6) rotate(90) scale(22 21.3125)">
<stop offset="0.859375" stop-color="#1A1A1A" stop-opacity="0"/>
<stop offset="1" stop-color="#E23744"/>
</radialGradient>
</defs>
</svg>
