<svg width="33" height="30" viewBox="0 0 33 30" fill="none" xmlns="http://www.w3.org/2000/svg">
<g clip-path="url(#clip0_2141_4334)">
<path d="M25.1008 12.0016C25.1008 19.7016 15.2008 26.3016 15.2008 26.3016C15.2008 26.3016 5.30078 19.7016 5.30078 12.0016C5.30078 9.37592 6.34381 6.85782 8.20042 5.00121C10.057 3.1446 12.5751 2.10156 15.2008 2.10156C17.8264 2.10156 20.3445 3.1446 22.2011 5.00121C24.0577 6.85782 25.1008 9.37592 25.1008 12.0016Z" stroke="#E23744" stroke-width="2.4" stroke-linecap="round" stroke-linejoin="round"/>
<path d="M15.2004 15.3031C17.0229 15.3031 18.5004 13.8257 18.5004 12.0031C18.5004 10.1806 17.0229 8.70312 15.2004 8.70312C13.3779 8.70312 11.9004 10.1806 11.9004 12.0031C11.9004 13.8257 13.3779 15.3031 15.2004 15.3031Z" stroke="#E23744" stroke-width="2.4" stroke-linecap="round" stroke-linejoin="round"/>
</g>
<defs>
<clipPath id="clip0_2141_4334">
<rect width="26.4" height="26.4" fill="white" transform="translate(2 1)"/>
</clipPath>
</defs>
</svg>
