<svg width="27" height="27" viewBox="0 0 27 27" fill="none" xmlns="http://www.w3.org/2000/svg">
<path d="M19.8008 3.29688C18.9256 3.29688 18.0862 3.64455 17.4673 4.26342C16.8485 4.88229 16.5008 5.72166 16.5008 6.59687V19.7969C16.5008 20.6721 16.8485 21.5115 17.4673 22.1303C18.0862 22.7492 18.9256 23.0969 19.8008 23.0969C20.676 23.0969 21.5154 22.7492 22.1342 22.1303C22.7531 21.5115 23.1008 20.6721 23.1008 19.7969C23.1008 18.9217 22.7531 18.0823 22.1342 17.4634C21.5154 16.8446 20.676 16.4969 19.8008 16.4969H6.60078C5.72557 16.4969 4.8862 16.8446 4.26733 17.4634C3.64846 18.0823 3.30078 18.9217 3.30078 19.7969C3.30078 20.6721 3.64846 21.5115 4.26733 22.1303C4.8862 22.7492 5.72557 23.0969 6.60078 23.0969C7.476 23.0969 8.31536 22.7492 8.93423 22.1303C9.5531 21.5115 9.90078 20.6721 9.90078 19.7969V6.59687C9.90078 5.72166 9.5531 4.88229 8.93423 4.26342C8.31536 3.64455 7.476 3.29688 6.60078 3.29688C5.72557 3.29688 4.8862 3.64455 4.26733 4.26342C3.64846 4.88229 3.30078 5.72166 3.30078 6.59687C3.30078 7.47209 3.64846 8.31146 4.26733 8.93033C4.8862 9.5492 5.72557 9.89687 6.60078 9.89687H19.8008C20.676 9.89687 21.5154 9.5492 22.1342 8.93033C22.7531 8.31146 23.1008 7.47209 23.1008 6.59687C23.1008 5.72166 22.7531 4.88229 22.1342 4.26342C21.5154 3.64455 20.676 3.29688 19.8008 3.29688Z" stroke="#E23744" stroke-width="2.2" stroke-linecap="round" stroke-linejoin="round"/>
</svg>
