<svg width="98" height="36" viewBox="0 0 98 36" fill="none" xmlns="http://www.w3.org/2000/svg">
<rect width="34.1" height="35.2" rx="4.4" fill="url(#paint0_radial_2141_4545)"/>
<rect x="1.55078" y="1.60156" width="31" height="32" rx="15.5" fill="#E23744"/>
<path fill-rule="evenodd" clip-rule="evenodd" d="M16.0497 5.89844C16.0725 6.29491 16.0741 6.29697 16.3879 6.32566L16.7032 6.35453V6.90981C16.7032 7.53934 16.7419 7.50569 15.8983 7.60956C14.739 7.75244 13.1171 8.59731 12.0521 9.613C10.2164 11.364 9.08382 13.903 8.82457 16.8489L8.73427 17.875H8.23506C7.48314 17.875 7.36205 18.1399 7.62953 19.2002C7.7225 19.5686 7.86637 19.8428 8.16747 20.2257C8.76209 20.9816 8.99723 21.0614 10.6507 21.0675L11.9916 21.0724L11.6133 21.4955L11.235 21.9186L9.36881 21.9095L7.50266 21.9004V22.2765V22.6525L9.07936 22.6778L10.6561 22.7031L10.6757 25.6797L10.6952 28.6562H9.09895H7.50266V29.0781V29.5H9.30567C10.6091 29.5 11.1334 29.4688 11.1977 29.3875C11.2506 29.3207 11.2868 28.9986 11.2868 28.5937V27.9123L15.3491 27.8859L19.4114 27.8594L19.7824 27.6104C20.2983 27.2642 24.2786 23.0875 24.4418 22.7211C24.5788 22.4135 24.5907 21.5807 24.4631 21.2266C24.4179 21.1012 24.4377 21.0625 24.5471 21.0625C25.205 21.0625 26.142 20.1054 26.3705 19.2002C26.638 18.1399 26.5169 17.875 25.7649 17.875H25.2657L25.1754 16.8489C24.9162 13.903 23.7836 11.364 21.9479 9.613C20.8829 8.59731 19.261 7.75244 18.1017 7.60956C17.2581 7.50569 17.2968 7.53934 17.2968 6.90981V6.35453L17.6121 6.32566C17.9259 6.29697 17.9276 6.29491 17.9503 5.89844L17.9731 5.5H17H16.0269L16.0497 5.89844ZM15.6892 8.45134C13.5894 8.93275 11.7544 10.4993 10.5808 12.8125C9.92819 14.0987 9.43514 16.0416 9.43277 17.3359L9.4318 17.875H17H24.5682L24.5672 17.3359C24.5629 14.9351 23.3204 11.9495 21.6593 10.3484C19.9256 8.67728 17.7371 7.98184 15.6892 8.45134ZM16.5548 9.12531C15.0611 9.26003 13.6245 10.0053 12.437 11.2618L12.2147 11.497L12.437 11.7763L12.6594 12.0555L13.1136 11.6082C14.0385 10.6973 15.2776 10.0776 16.44 9.9445L17 9.88037V9.47144C17 9.24653 16.9749 9.06991 16.9444 9.07891C16.9138 9.08791 16.7385 9.10881 16.5548 9.12531ZM11.4769 12.5558L11.1847 13.0272L11.4027 13.2475C11.5226 13.3686 11.6386 13.468 11.6606 13.4683C11.6825 13.4686 11.8278 13.2764 11.9834 13.0413C12.2604 12.6225 12.2634 12.6097 12.1297 12.4232C11.857 12.0424 11.7861 12.0569 11.4769 12.5558ZM8.17044 18.7694C8.17044 18.7972 8.23521 18.9805 8.31446 19.1767C8.50262 19.6427 8.9119 20.09 9.26285 20.2131C9.65143 20.3494 24.3486 20.3494 24.7371 20.2131C25.0881 20.09 25.4974 19.6427 25.6855 19.1767C25.7648 18.9805 25.8296 18.7972 25.8296 18.7694C25.8296 18.7415 21.8563 18.7188 17 18.7188C12.1437 18.7188 8.17044 18.7415 8.17044 18.7694ZM13.0628 21.1881C12.9173 21.255 12.4591 21.6654 12.0445 22.1001L11.2906 22.8906L11.2887 24.9766L11.2868 27.0625L15.2749 27.0586C19.0178 27.0549 19.279 27.0439 19.5224 26.8802C19.919 26.6134 23.8022 22.5452 23.8939 22.3003C24.0195 21.9651 23.9904 21.7302 23.7925 21.4802C23.4329 21.0258 23.3104 21.0973 21.2134 22.9844L19.2862 24.7188H17.2874C15.062 24.7188 14.8894 24.6811 14.6276 24.1384C14.4367 23.7429 14.4367 23.2571 14.6276 22.8616C14.8678 22.3637 15.1301 22.2812 16.4753 22.2812C17.6006 22.2812 17.6699 22.2707 17.8133 22.076C18.0021 21.82 18.0047 21.6147 17.8229 21.3307L17.6811 21.1094L15.5042 21.088C13.8707 21.072 13.2612 21.097 13.0628 21.1881ZM18.5381 21.5547C18.5737 22.1558 18.3991 22.6156 18.0304 22.8906C17.8129 23.0528 17.604 23.0844 16.4806 23.125L15.1821 23.1719V23.5V23.8281L17.1636 23.8531L19.145 23.878L20.6138 22.5533C21.4216 21.8247 22.1142 21.1912 22.1531 21.1456C22.1941 21.0972 21.4483 21.0625 20.3662 21.0625H18.5088L18.5381 21.5547ZM8.78873 25.5707C8.40861 25.7113 8.17044 26.1479 8.17044 26.7041C8.17044 27.113 8.20309 27.2162 8.41833 27.4882C8.73278 27.8855 9.00235 27.9732 9.38751 27.8036C9.92656 27.5662 10.1789 26.772 9.91787 26.1343C9.71865 25.6474 9.23451 25.4058 8.78873 25.5707ZM8.85306 26.425C8.65347 26.6772 8.80884 27.0625 9.11016 27.0625C9.29446 27.0625 9.43366 26.8149 9.37356 26.5938C9.29713 26.3124 9.01466 26.2208 8.85306 26.425Z" fill="#080808"/>
<path d="M56.1252 24.2168C55.114 24.2168 54.1796 24.0504 53.322 23.7176C52.4644 23.372 51.722 22.892 51.0948 22.2776C50.4676 21.6632 49.9748 20.94 49.6164 20.108C49.2708 19.276 49.098 18.3672 49.098 17.3816C49.098 16.396 49.2708 15.4872 49.6164 14.6552C49.9748 13.8232 50.4676 13.1 51.0948 12.4856C51.7348 11.8712 52.4836 11.3976 53.3412 11.0648C54.1988 10.7192 55.1332 10.5464 56.1444 10.5464C57.1172 10.5464 58.0324 10.7128 58.89 11.0456C59.7476 11.3656 60.4708 11.852 61.0596 12.5048L60.1572 13.4072C59.6068 12.844 58.9988 12.4408 58.3332 12.1976C57.6676 11.9416 56.9508 11.8136 56.1828 11.8136C55.3764 11.8136 54.6276 11.9544 53.9364 12.236C53.2452 12.5048 52.6436 12.8952 52.1316 13.4072C51.6196 13.9064 51.2164 14.4952 50.922 15.1736C50.6404 15.8392 50.4996 16.5752 50.4996 17.3816C50.4996 18.188 50.6404 18.9304 50.922 19.6088C51.2164 20.2744 51.6196 20.8632 52.1316 21.3752C52.6436 21.8744 53.2452 22.2648 53.9364 22.5464C54.6276 22.8152 55.3764 22.9496 56.1828 22.9496C56.9508 22.9496 57.6676 22.8216 58.3332 22.5656C58.9988 22.3096 59.6068 21.9 60.1572 21.3368L61.0596 22.2392C60.4708 22.892 59.7476 23.3848 58.89 23.7176C58.0324 24.0504 57.1108 24.2168 56.1252 24.2168ZM67.4592 24.1976C66.4864 24.1976 65.6096 23.98 64.8288 23.5448C64.0608 23.0968 63.4528 22.4888 63.0048 21.7208C62.5568 20.94 62.3328 20.0504 62.3328 19.052C62.3328 18.0408 62.5568 17.1512 63.0048 16.3832C63.4528 15.6152 64.0608 15.0136 64.8288 14.5784C65.5968 14.1432 66.4736 13.9256 67.4592 13.9256C68.4576 13.9256 69.3408 14.1432 70.1088 14.5784C70.8896 15.0136 71.4976 15.6152 71.9328 16.3832C72.3808 17.1512 72.6048 18.0408 72.6048 19.052C72.6048 20.0504 72.3808 20.94 71.9328 21.7208C71.4976 22.4888 70.8896 23.0968 70.1088 23.5448C69.328 23.98 68.4448 24.1976 67.4592 24.1976ZM67.4592 22.988C68.1888 22.988 68.8352 22.828 69.3984 22.508C69.9616 22.1752 70.4032 21.7144 70.7232 21.1256C71.056 20.524 71.2224 19.8328 71.2224 19.052C71.2224 18.2584 71.056 17.5672 70.7232 16.9784C70.4032 16.3896 69.9616 15.9352 69.3984 15.6152C68.8352 15.2824 68.1952 15.116 67.4784 15.116C66.7616 15.116 66.1216 15.2824 65.5584 15.6152C64.9952 15.9352 64.5472 16.3896 64.2144 16.9784C63.8816 17.5672 63.7152 18.2584 63.7152 19.052C63.7152 19.8328 63.8816 20.524 64.2144 21.1256C64.5472 21.7144 64.9952 22.1752 65.5584 22.508C66.1216 22.828 66.7552 22.988 67.4592 22.988ZM79.4967 24.1976C78.5239 24.1976 77.6471 23.98 76.8663 23.5448C76.0983 23.0968 75.4903 22.4888 75.0423 21.7208C74.5943 20.94 74.3703 20.0504 74.3703 19.052C74.3703 18.0408 74.5943 17.1512 75.0423 16.3832C75.4903 15.6152 76.0983 15.0136 76.8663 14.5784C77.6343 14.1432 78.5111 13.9256 79.4967 13.9256C80.4951 13.9256 81.3783 14.1432 82.1463 14.5784C82.9271 15.0136 83.5351 15.6152 83.9703 16.3832C84.4183 17.1512 84.6423 18.0408 84.6423 19.052C84.6423 20.0504 84.4183 20.94 83.9703 21.7208C83.5351 22.4888 82.9271 23.0968 82.1463 23.5448C81.3655 23.98 80.4823 24.1976 79.4967 24.1976ZM79.4967 22.988C80.2263 22.988 80.8727 22.828 81.4359 22.508C81.9991 22.1752 82.4407 21.7144 82.7607 21.1256C83.0935 20.524 83.2599 19.8328 83.2599 19.052C83.2599 18.2584 83.0935 17.5672 82.7607 16.9784C82.4407 16.3896 81.9991 15.9352 81.4359 15.6152C80.8727 15.2824 80.2327 15.116 79.5159 15.116C78.7991 15.116 78.1591 15.2824 77.5959 15.6152C77.0327 15.9352 76.5847 16.3896 76.2519 16.9784C75.9191 17.5672 75.7527 18.2584 75.7527 19.052C75.7527 19.8328 75.9191 20.524 76.2519 21.1256C76.5847 21.7144 77.0327 22.1752 77.5959 22.508C78.1591 22.828 78.7927 22.988 79.4967 22.988ZM88.5006 21.4904L88.539 19.7432L94.8174 14.0216H96.4878L92.0526 18.2648L91.2846 18.9176L88.5006 21.4904ZM87.4254 24.1016V9.85516H88.7886V24.1016H87.4254ZM95.2398 24.1016L91.035 18.86L91.9182 17.804L96.9102 24.1016H95.2398Z" fill="white"/>
<defs>
<radialGradient id="paint0_radial_2141_4545" cx="0" cy="0" r="1" gradientUnits="userSpaceOnUse" gradientTransform="translate(17.05 17.6) rotate(90) scale(22 21.3125)">
<stop offset="0.859375" stop-color="#1A1A1A" stop-opacity="0"/>
<stop offset="1" stop-color="#E23744"/>
</radialGradient>
</defs>
</svg>
