<svg width="36" height="29" viewBox="0 0 36 29" fill="none" xmlns="http://www.w3.org/2000/svg">
<rect width="36" height="29" fill="#1E1E1E"/>
<g id="kitchen king">
<rect width="1440" height="2052" transform="translate(-309 -1452)" fill="#121212"/>
<g id="Rectangle 2079">
<mask id="path-1-inside-1_73_107" fill="white">
<path d="M-259 -592H1081V537H-259V-592Z"/>
</mask>
<path d="M1081 537V553H1097V537H1081ZM-259 537H-275V553H-259V537ZM1065 -592V537H1097V-592H1065ZM1081 521H-259V553H1081V521ZM-243 537V-592H-275V537H-243Z" fill="#E23744" mask="url(#path-1-inside-1_73_107)"/>
</g>
<g id="Frame 1000000933">
<g id="Frame 1000000918" filter="url(#filter0_d_73_107)">
<rect x="-88" y="-28" width="392" height="520" rx="16" fill="#1E1E1E"/>
<g id="Group 9236">
<g id="Group">
<path id="Vector" fill-rule="evenodd" clip-rule="evenodd" d="M27.7369 22.8892L30.8736 10.9509L26.2896 13.8702C25.3755 14.453 24.2694 14.6541 23.2087 14.4304C22.148 14.2066 21.2173 13.5758 20.6165 12.6735L17.5999 8.14124L14.5811 12.6756C13.98 13.5776 13.0492 14.2079 11.9885 14.4313C10.9278 14.6547 9.82186 14.4532 8.90804 13.8702L4.32817 10.9509L7.46493 22.8892H27.7369ZM5.43794 9.20339C3.84989 8.19094 1.84361 9.65475 2.32189 11.4768L5.46071 23.4151C5.57691 23.8575 5.83638 24.2491 6.1986 24.5285C6.56082 24.8079 7.00538 24.9595 7.46285 24.9596H27.7369C28.1943 24.9595 28.6389 24.8079 29.0011 24.5285C29.3633 24.2491 29.6228 23.8575 29.739 23.4151L32.8778 11.4768C33.354 9.65475 31.3498 8.19301 29.7618 9.20339L25.1778 12.1228C24.721 12.4143 24.1681 12.5152 23.6378 12.4037C23.1074 12.2923 22.6419 11.9773 22.3412 11.5265L19.3225 6.99213C19.1334 6.70857 18.8772 6.47606 18.5767 6.31526C18.2762 6.15445 17.9407 6.07031 17.5999 6.07031C17.259 6.07031 16.9235 6.15445 16.623 6.31526C16.3225 6.47606 16.0663 6.70857 15.8772 6.99213L12.8585 11.5265C12.5581 11.9776 12.0928 12.293 11.5624 12.4049C11.0321 12.5168 10.479 12.4162 10.022 12.1248L5.43794 9.20339Z" fill="#FFC84B"/>
<path id="Vector_2" d="M19.5556 2.44671C19.5561 2.96563 19.3505 3.46351 18.9839 3.83083C18.6174 4.19815 18.12 4.40482 17.601 4.40537C17.0821 4.40592 16.5842 4.20031 16.2169 3.83376C15.8496 3.46722 15.6429 2.96977 15.6424 2.45085C15.6418 1.93193 15.8474 1.43405 16.214 1.06673C16.5805 0.699405 17.078 0.492738 17.5969 0.492189C18.1158 0.491639 18.6137 0.697253 18.981 1.0638C19.3483 1.43034 19.555 1.92779 19.5556 2.44671ZM35.2 6.36196C35.2003 6.88088 34.9944 7.37866 34.6277 7.74578C34.2609 8.11291 33.7634 8.31931 33.2444 8.31959C32.7255 8.31986 32.2278 8.11398 31.8606 7.74725C31.4935 7.38051 31.2871 6.88295 31.2868 6.36403C31.2868 5.84511 31.493 5.34745 31.8599 4.98051C32.2268 4.61358 32.7245 4.40744 33.2434 4.40744C33.7623 4.40744 34.26 4.61358 34.6269 4.98051C34.9939 5.34745 35.2 5.84304 35.2 6.36196ZM3.91318 6.36196C3.91332 6.6189 3.86284 6.87336 3.76464 7.11079C3.66644 7.34823 3.52243 7.564 3.34084 7.74578C3.15925 7.92757 2.94363 8.0718 2.7063 8.17025C2.46897 8.26871 2.21457 8.31945 1.95763 8.31959C1.70068 8.31972 1.44623 8.26925 1.20879 8.17105C0.971356 8.07284 0.755587 7.92884 0.573804 7.74725C0.392022 7.56566 0.247786 7.35004 0.149333 7.11271C0.0508793 6.87538 0.000135945 6.62097 0 6.36403C0 5.84511 0.20614 5.34745 0.573072 4.98051C0.940004 4.61358 1.43767 4.40744 1.95659 4.40744C2.47551 4.40744 2.97318 4.61358 3.34011 4.98051C3.70704 5.34745 3.91318 5.84304 3.91318 6.36196Z" fill="#FFC84B"/>
<path id="Vector_3" fill-rule="evenodd" clip-rule="evenodd" d="M7.76562 27.4024C7.76562 27.1279 7.87469 26.8645 8.06884 26.6704C8.26298 26.4763 8.5263 26.3672 8.80086 26.3672H26.8905C27.1651 26.3672 27.4284 26.4763 27.6225 26.6704C27.8167 26.8645 27.9258 27.1279 27.9258 27.4024C27.9258 27.677 27.8167 27.9403 27.6225 28.1344C27.4284 28.3286 27.1651 28.4377 26.8905 28.4377H8.80086C8.5263 28.4377 8.26298 28.3286 8.06884 28.1344C7.87469 27.9403 7.76562 27.677 7.76562 27.4024Z" fill="#FFC84B"/>
</g>
</g>
</g>
</g>
</g>
<defs>
<filter id="filter0_d_73_107" x="-92" y="-36" width="400" height="528" filterUnits="userSpaceOnUse" color-interpolation-filters="sRGB">
<feFlood flood-opacity="0" result="BackgroundImageFix"/>
<feColorMatrix in="SourceAlpha" type="matrix" values="0 0 0 0 0 0 0 0 0 0 0 0 0 0 0 0 0 0 127 0" result="hardAlpha"/>
<feOffset dy="-4"/>
<feGaussianBlur stdDeviation="2"/>
<feComposite in2="hardAlpha" operator="out"/>
<feColorMatrix type="matrix" values="0 0 0 0 1 0 0 0 0 1 0 0 0 0 1 0 0 0 0.25 0"/>
<feBlend mode="normal" in2="BackgroundImageFix" result="effect1_dropShadow_73_107"/>
<feBlend mode="normal" in="SourceGraphic" in2="effect1_dropShadow_73_107" result="shape"/>
</filter>
</defs>
</svg>
