<svg width="236" height="31" viewBox="0 0 236 31" fill="none" xmlns="http://www.w3.org/2000/svg">
<path d="M228.821 12.7188C230.186 12.7188 231.402 12.9854 232.469 13.5187C233.557 14.0521 234.41 14.8734 235.029 15.9827C235.648 17.0707 235.957 18.4788 235.957 20.2068V29.9988H231.957V20.7188C231.957 19.2041 231.594 18.0734 230.869 17.3267C230.165 16.5801 229.173 16.2068 227.893 16.2068C226.954 16.2068 226.122 16.3988 225.397 16.7828C224.672 17.1668 224.106 17.7428 223.701 18.5107C223.317 19.2574 223.125 20.2068 223.125 21.3588V29.9988H219.125V12.9107H222.933V17.5188L222.261 16.1108C222.858 15.0228 223.722 14.1908 224.853 13.6147C226.005 13.0174 227.328 12.7188 228.821 12.7188Z" fill="white"/>
<path d="M206.18 30.2228C204.43 30.2228 202.873 29.8494 201.508 29.1028C200.142 28.3348 199.065 27.2894 198.276 25.9668C197.486 24.6441 197.092 23.1401 197.092 21.4548C197.092 19.7481 197.486 18.2441 198.276 16.9428C199.065 15.6201 200.142 14.5854 201.508 13.8388C202.873 13.0921 204.43 12.7188 206.18 12.7188C207.95 12.7188 209.518 13.0921 210.884 13.8388C212.27 14.5854 213.348 15.6094 214.116 16.9107C214.905 18.2121 215.3 19.7267 215.3 21.4548C215.3 23.1401 214.905 24.6441 214.116 25.9668C213.348 27.2894 212.27 28.3348 210.884 29.1028C209.518 29.8494 207.95 30.2228 206.18 30.2228ZM206.18 26.7987C207.161 26.7987 208.036 26.5854 208.804 26.1588C209.572 25.7321 210.169 25.1134 210.596 24.3028C211.044 23.4921 211.268 22.5428 211.268 21.4548C211.268 20.3454 211.044 19.3961 210.596 18.6068C210.169 17.7961 209.572 17.1774 208.804 16.7507C208.036 16.3241 207.172 16.1108 206.212 16.1108C205.23 16.1108 204.356 16.3241 203.588 16.7507C202.841 17.1774 202.244 17.7961 201.796 18.6068C201.348 19.3961 201.124 20.3454 201.124 21.4548C201.124 22.5428 201.348 23.4921 201.796 24.3028C202.244 25.1134 202.841 25.7321 203.588 26.1588C204.356 26.5854 205.22 26.7987 206.18 26.7987Z" fill="white"/>
<path d="M189.249 30.0009V12.9129H193.249V30.0009H189.249ZM191.265 10.0969C190.518 10.0969 189.9 9.86221 189.409 9.39287C188.94 8.92354 188.705 8.35821 188.705 7.69687C188.705 7.01421 188.94 6.44887 189.409 6.00087C189.9 5.53154 190.518 5.29688 191.265 5.29688C192.012 5.29688 192.62 5.52087 193.089 5.96887C193.58 6.39554 193.825 6.93954 193.825 7.60087C193.825 8.30487 193.59 8.90221 193.121 9.39287C192.652 9.86221 192.033 10.0969 191.265 10.0969Z" fill="white"/>
<path d="M182.118 30.2286C180.241 30.2286 178.79 29.7486 177.766 28.7886C176.742 27.8073 176.23 26.3673 176.23 24.4686V9.14062H180.23V24.3726C180.23 25.1833 180.433 25.8126 180.838 26.2606C181.265 26.7086 181.851 26.9326 182.598 26.9326C183.494 26.9326 184.241 26.698 184.838 26.2286L185.958 29.0766C185.489 29.4606 184.913 29.7486 184.23 29.9406C183.547 30.1326 182.843 30.2286 182.118 30.2286ZM173.414 16.2446V13.0446H184.806V16.2446H173.414Z" fill="white"/>
<path d="M166.777 29.9988V26.5428L166.553 25.8067V19.7587C166.553 18.5854 166.201 17.6787 165.497 17.0387C164.793 16.3774 163.727 16.0468 162.297 16.0468C161.337 16.0468 160.388 16.1961 159.449 16.4947C158.532 16.7934 157.753 17.2094 157.113 17.7428L155.545 14.8307C156.463 14.1267 157.551 13.6041 158.809 13.2628C160.089 12.9001 161.412 12.7188 162.777 12.7188C165.252 12.7188 167.161 13.3161 168.505 14.5107C169.871 15.6841 170.553 17.5081 170.553 19.9827V29.9988H166.777ZM161.401 30.2228C160.121 30.2228 159.001 30.0094 158.041 29.5828C157.081 29.1348 156.335 28.5268 155.801 27.7588C155.289 26.9694 155.033 26.0841 155.033 25.1028C155.033 24.1428 155.257 23.2787 155.705 22.5107C156.175 21.7428 156.932 21.1348 157.977 20.6868C159.023 20.2388 160.409 20.0147 162.137 20.0147H167.097V22.6707H162.425C161.06 22.6707 160.143 22.8948 159.673 23.3428C159.204 23.7694 158.969 24.3028 158.969 24.9428C158.969 25.6681 159.257 26.2441 159.833 26.6708C160.409 27.0974 161.209 27.3108 162.233 27.3108C163.215 27.3108 164.089 27.0868 164.857 26.6388C165.647 26.1908 166.212 25.5294 166.553 24.6548L167.225 27.0548C166.841 28.0574 166.148 28.8361 165.145 29.3908C164.164 29.9454 162.916 30.2228 161.401 30.2228Z" fill="white"/>
<path d="M137.811 30.0021V27.4741L148.339 14.7381L149.075 16.1141H138.003V12.9141H152.275V15.4421L141.747 28.1781L140.947 26.8021H152.563V30.0021H137.811Z" fill="white"/>
<path d="M129.968 30.0009V12.9129H133.968V30.0009H129.968ZM131.984 10.0969C131.237 10.0969 130.618 9.86221 130.128 9.39287C129.658 8.92354 129.424 8.35821 129.424 7.69687C129.424 7.01421 129.658 6.44887 130.128 6.00087C130.618 5.53154 131.237 5.29688 131.984 5.29688C132.73 5.29688 133.338 5.52087 133.808 5.96887C134.298 6.39554 134.544 6.93954 134.544 7.60087C134.544 8.30487 134.309 8.90221 133.84 9.39287C133.37 9.86221 132.752 10.0969 131.984 10.0969Z" fill="white"/>
<path d="M117.849 12.7188C119.215 12.7188 120.42 12.9854 121.465 13.5187C122.532 14.0521 123.364 14.8734 123.961 15.9827C124.559 17.0707 124.857 18.4788 124.857 20.2068V29.9988H120.857V20.7188C120.857 19.2041 120.527 18.0734 119.865 17.3267C119.204 16.5801 118.255 16.2068 117.017 16.2068C116.143 16.2068 115.364 16.3988 114.681 16.7828C114.02 17.1668 113.497 17.7321 113.113 18.4788C112.751 19.2254 112.569 20.1747 112.569 21.3267V29.9988H108.569V20.7188C108.569 19.2041 108.239 18.0734 107.577 17.3267C106.916 16.5801 105.967 16.2068 104.729 16.2068C103.855 16.2068 103.076 16.3988 102.393 16.7828C101.732 17.1668 101.209 17.7321 100.825 18.4788C100.463 19.2254 100.281 20.1747 100.281 21.3267V29.9988H96.2812V12.9107H100.089V17.4548L99.4173 16.1108C99.9933 15.0014 100.825 14.1587 101.913 13.5828C103.023 13.0068 104.281 12.7188 105.689 12.7188C107.289 12.7188 108.676 13.1134 109.849 13.9028C111.044 14.6921 111.833 15.8867 112.217 17.4867L110.649 16.9428C111.204 15.6628 112.121 14.6388 113.401 13.8708C114.681 13.1028 116.164 12.7188 117.849 12.7188Z" fill="white"/>
<path d="M69.0868 30.2286C67.2095 30.2286 65.7588 29.7486 64.7348 28.7886C63.7108 27.8073 63.1988 26.3673 63.1988 24.4686V9.14062H67.1988V24.3726C67.1988 25.1833 67.4015 25.8126 67.8068 26.2606C68.2335 26.7086 68.8201 26.9326 69.5668 26.9326C70.4628 26.9326 71.2095 26.698 71.8068 26.2286L72.9268 29.0766C72.4575 29.4606 71.8815 29.7486 71.1988 29.9406C70.5161 30.1326 69.8121 30.2286 69.0868 30.2286ZM60.3828 16.2446V13.0446H71.7748V16.2446H60.3828Z" fill="white"/>
<path d="M51.4664 30.2228C50.037 30.2228 48.661 30.0414 47.3384 29.6788C46.037 29.2948 45.0024 28.8361 44.2344 28.3028L45.7704 25.2628C46.5384 25.7534 47.4557 26.1588 48.5224 26.4788C49.589 26.7987 50.6557 26.9587 51.7224 26.9587C52.981 26.9587 53.8877 26.7881 54.4424 26.4468C55.0184 26.1054 55.3064 25.6467 55.3064 25.0707C55.3064 24.6014 55.1144 24.2494 54.7304 24.0147C54.3464 23.7587 53.845 23.5667 53.2264 23.4387C52.6077 23.3107 51.9144 23.1934 51.1464 23.0868C50.3997 22.9801 49.6424 22.8414 48.8744 22.6707C48.1277 22.4788 47.445 22.2121 46.8264 21.8708C46.2077 21.5081 45.7064 21.0281 45.3224 20.4307C44.9384 19.8334 44.7464 19.0441 44.7464 18.0627C44.7464 16.9748 45.0557 16.0361 45.6744 15.2467C46.293 14.4361 47.157 13.8174 48.2664 13.3907C49.397 12.9427 50.7304 12.7188 52.2664 12.7188C53.4184 12.7188 54.581 12.8468 55.7544 13.1028C56.9277 13.3587 57.8984 13.7214 58.6664 14.1908L57.1304 17.2307C56.3197 16.7401 55.4984 16.4094 54.6664 16.2388C53.8557 16.0468 53.045 15.9508 52.2344 15.9508C51.0184 15.9508 50.1117 16.1321 49.5144 16.4947C48.9384 16.8574 48.6504 17.3161 48.6504 17.8708C48.6504 18.3828 48.8424 18.7667 49.2264 19.0227C49.6104 19.2787 50.1117 19.4814 50.7304 19.6308C51.349 19.7801 52.0317 19.9081 52.7784 20.0147C53.5464 20.1001 54.3037 20.2387 55.0504 20.4307C55.797 20.6227 56.4797 20.8894 57.0984 21.2307C57.7384 21.5507 58.2504 22.0094 58.6344 22.6068C59.0184 23.2041 59.2104 23.9828 59.2104 24.9428C59.2104 26.0094 58.8904 26.9374 58.2504 27.7268C57.6317 28.5161 56.7464 29.1348 55.5944 29.5828C54.4424 30.0094 53.0664 30.2228 51.4664 30.2228Z" fill="white"/>
<path d="M31.6373 30.2261C30.1867 30.2261 28.9067 29.9594 27.7973 29.4261C26.688 28.8714 25.824 28.0394 25.2053 26.9301C24.5867 25.7994 24.2773 24.3807 24.2773 22.6741V12.9141H28.2773V22.1301C28.2773 23.6661 28.6187 24.8181 29.3013 25.5861C30.0053 26.3327 30.9973 26.7061 32.2773 26.7061C33.216 26.7061 34.0267 26.5141 34.7093 26.1301C35.4133 25.7461 35.9573 25.1701 36.3413 24.4021C36.7467 23.6341 36.9493 22.6847 36.9493 21.5541V12.9141H40.9493V30.0021H37.1413V25.3941L37.8133 26.8021C37.2373 27.9114 36.3947 28.7647 35.2853 29.3621C34.176 29.9381 32.96 30.2261 31.6373 30.2261Z" fill="white"/>
<path d="M12.3762 30.3213C10.6695 30.3213 9.0802 30.0439 7.6082 29.4893C6.15754 28.9133 4.8882 28.1133 3.8002 27.0893C2.73354 26.0439 1.90154 24.8173 1.3042 23.4093C0.70687 22.0013 0.408203 20.4653 0.408203 18.8013C0.408203 17.1372 0.70687 15.6013 1.3042 14.1933C1.90154 12.7853 2.7442 11.5693 3.8322 10.5452C4.9202 9.49992 6.18954 8.69992 7.6402 8.14525C9.09087 7.56925 10.6802 7.28125 12.4082 7.28125C14.2429 7.28125 15.9175 7.60125 17.4322 8.24125C18.9469 8.85992 20.2269 9.78792 21.2722 11.0252L18.5842 13.5533C17.7735 12.6786 16.8669 12.0279 15.8642 11.6012C14.8615 11.1533 13.7735 10.9293 12.6002 10.9293C11.4269 10.9293 10.3495 11.1213 9.3682 11.5053C8.4082 11.8893 7.56554 12.4333 6.8402 13.1373C6.1362 13.8413 5.58154 14.6733 5.1762 15.6333C4.7922 16.5933 4.6002 17.6493 4.6002 18.8013C4.6002 19.9533 4.7922 21.0092 5.1762 21.9692C5.58154 22.9292 6.1362 23.7613 6.8402 24.4653C7.56554 25.1693 8.4082 25.7133 9.3682 26.0973C10.3495 26.4813 11.4269 26.6733 12.6002 26.6733C13.7735 26.6733 14.8615 26.4599 15.8642 26.0333C16.8669 25.5853 17.7735 24.9132 18.5842 24.0173L21.2722 26.5773C20.2269 27.7933 18.9469 28.7213 17.4322 29.3613C15.9175 30.0013 14.2322 30.3213 12.3762 30.3213Z" fill="white"/>
<path d="M79.1417 28.3812L79.1424 28.382C80.4108 29.6992 82.1751 30.3517 84.4198 30.3517C86.6684 30.3517 88.4682 29.6251 89.8067 28.1649L89.8073 28.1643C91.1438 26.6819 91.8073 24.7297 91.8073 22.3189C91.8073 21.1124 91.7545 20.313 91.5397 19.6544C91.3234 18.9911 90.9461 18.4801 90.32 17.8419C89.685 17.17 88.8152 16.8846 87.836 16.7645C87.0639 16.6698 86.2101 16.6767 85.335 16.6838C85.1028 16.6856 84.869 16.6875 84.6349 16.6875C84.2833 16.6875 83.9329 16.6789 83.5872 16.6703C82.8531 16.6522 82.1406 16.6346 81.4852 16.7016C80.5134 16.8009 79.6391 17.0874 78.9565 17.8442C78.2937 18.5673 77.8632 19.1992 77.6007 19.9572C77.3389 20.7132 77.2474 21.5858 77.2474 22.7849C77.2474 25.1699 77.8741 27.0405 79.1417 28.3812ZM88.4652 22.9641C88.4652 24.7101 88.1499 25.9995 87.5366 26.85C86.9283 27.6936 86.0155 28.1206 84.7782 28.1206C83.361 28.1206 82.3137 27.6393 81.6161 26.688C80.9137 25.7301 80.5536 24.2798 80.5536 22.3189C80.5536 21.8202 80.535 21.4851 80.516 21.2501C80.5075 21.1452 80.4994 21.0636 80.4927 20.9975C80.4841 20.9106 80.478 20.8504 80.4774 20.7989C80.477 20.7584 80.4803 20.7315 80.4871 20.7078C80.494 20.6837 80.506 20.6574 80.5293 20.6197C80.5583 20.5729 80.5973 20.5195 80.6531 20.4432C80.6843 20.4004 80.7209 20.3504 80.7639 20.2903C81.3168 20.4502 81.9555 20.4466 82.6032 20.4043C82.8331 20.3892 83.0635 20.3694 83.2927 20.3497C83.7488 20.3104 84.2005 20.2716 84.6349 20.2716C85.2885 20.2716 85.8479 20.2099 86.3171 20.1582C86.3806 20.1512 86.4424 20.1444 86.5026 20.1379C87.0156 20.0829 87.3919 20.0571 87.6747 20.1455C87.8116 20.1883 87.9252 20.2579 88.0209 20.366C88.1178 20.4753 88.2007 20.6288 88.2675 20.8453C88.4022 21.2813 88.4652 21.9497 88.4652 22.9641Z" fill="#E23744" stroke="#E23744" stroke-width="0.224001"/>
<path d="M89.6236 14.9053C86.1569 13.4129 83.459 12.9343 79.6212 13.3687L79.5723 11.1844C76.116 10.7205 77.3611 7.1178 79.5254 7.19566C80.4143 7.22763 80.9034 7.8564 80.4189 8.42137C81.6506 7.57061 83.1293 7.60144 84.118 8.27032C84.992 6.6637 86.5336 5.73173 88.6957 6.61286C90.5156 7.35454 92.1908 9.85863 89.4671 12.9605L89.6236 14.9053Z" fill="#E23744" stroke="#E23744" stroke-width="0.00896367"/>
<path d="M79.6342 13.5971C83.3748 13.2638 85.6373 13.6288 89.6686 15.1252L89.7808 15.8103C85.4636 14.6211 83.4726 15.545 80.0348 15.6366L79.6342 13.5971Z" fill="#E23744" stroke="#E23744" stroke-width="0.00906385"/>
</svg>
