<svg width="23" height="18" viewBox="0 0 23 18" fill="none" xmlns="http://www.w3.org/2000/svg">
<rect width="23" height="18" fill="#1E1E1E"/>
<g id="new website layout redesign">
<path d="M-6304 -5877C-6304 -5878.1 -6303.1 -5879 -6302 -5879H6095C6096.1 -5879 6097 -5878.1 6097 -5877V1927C6097 1928.1 6096.1 1929 6095 1929H-6302C-6303.1 1929 -6304 1928.1 -6304 1927V-5877Z" fill="#404040"/>
<path d="M-6302 -5878H6095V-5880H-6302V-5878ZM6096 -5877V1927H6098V-5877H6096ZM6095 1928H-6302V1930H6095V1928ZM-6303 1927V-5877H-6305V1927H-6303ZM-6302 1928C-6302.55 1928 -6303 1927.55 -6303 1927H-6305C-6305 1928.66 -6303.66 1930 -6302 1930V1928ZM6096 1927C6096 1927.55 6095.55 1928 6095 1928V1930C6096.66 1930 6098 1928.66 6098 1927H6096ZM6095 -5878C6095.55 -5878 6096 -5877.55 6096 -5877H6098C6098 -5878.66 6096.66 -5880 6095 -5880V-5878ZM-6302 -5880C-6303.66 -5880 -6305 -5878.66 -6305 -5877H-6303C-6303 -5877.55 -6302.55 -5878 -6302 -5878V-5880Z" fill="white" fill-opacity="0.1"/>
<g id="customization">
<rect width="1440" height="1419" transform="translate(-216 -566)" fill="#1E1E1E"/>
<path id="Vector 15" d="M-158 699V-371C-158 -395.301 -138.301 -415 -114 -415H306.085C314.778 -415 322.896 -410.655 327.719 -403.422L357.75 -358.374C366.653 -345.021 381.64 -337 397.689 -337H1122C1146.3 -337 1166 -317.301 1166 -293V697C1166 724.614 1143.61 747 1116 747H-110C-136.51 747 -158 725.51 -158 699Z" fill="url(#paint0_linear_73_107)"/>
<g id="Frame 9251">
<g id="Frame 1000000937">
<rect x="-15.6699" y="-10" width="164.528" height="39" rx="4" fill="#1E1E1E"/>
<g id="Group 9236">
<g id="k0.8">
<path id="Vector" fill-rule="evenodd" clip-rule="evenodd" d="M18.0811 14.3344L20.0886 6.69387L17.1549 8.56226C16.5699 8.93525 15.8619 9.06396 15.1831 8.92076C14.5042 8.77755 13.9086 8.37385 13.5241 7.79635L11.5934 4.89571L9.66145 7.79767C9.27675 8.37496 8.68102 8.77839 8.00219 8.92134C7.32335 9.0643 6.61552 8.93537 6.03068 8.56226L3.09956 6.69387L5.10708 14.3344H18.0811ZM3.80981 5.57548C2.79346 4.92751 1.50944 5.86436 1.81554 7.03044L3.82439 14.671C3.89876 14.9541 4.06482 15.2047 4.29663 15.3836C4.52845 15.5624 4.81297 15.6594 5.10576 15.6595H18.0811C18.3739 15.6594 18.6584 15.5624 18.8902 15.3836C19.1221 15.2047 19.2881 14.9541 19.3625 14.671L21.3713 7.03044C21.6761 5.86436 20.3934 4.92884 19.3771 5.57548L16.4433 7.44387C16.151 7.6305 15.7971 7.69506 15.4577 7.62371C15.1183 7.55236 14.8204 7.35078 14.6279 7.06224L12.6959 4.16028C12.5749 3.9788 12.411 3.82999 12.2186 3.72708C12.0263 3.62416 11.8116 3.57031 11.5934 3.57031C11.3753 3.57031 11.1606 3.62416 10.9682 3.72708C10.7759 3.82999 10.612 3.9788 10.491 4.16028L8.55897 7.06224C8.36672 7.351 8.0689 7.55285 7.72948 7.62445C7.39005 7.69605 7.03608 7.63169 6.74358 7.4452L3.80981 5.57548Z" fill="#FFC84B"/>
<path id="Vector_2" d="M12.8456 1.25089C12.846 1.583 12.7144 1.90165 12.4798 2.13673C12.2452 2.37182 11.9269 2.50409 11.5947 2.50444C11.2626 2.50479 10.944 2.3732 10.7089 2.13861C10.4738 1.90402 10.3415 1.58565 10.3412 1.25354C10.3408 0.921435 10.4724 0.602789 10.707 0.367704C10.9416 0.132619 11.26 0.00035214 11.5921 7.02119e-07C11.9242 -0.000350736 12.2428 0.131242 12.4779 0.36583C12.713 0.600418 12.8453 0.918785 12.8456 1.25089ZM22.8581 3.75665C22.8583 4.08876 22.7265 4.40734 22.4918 4.6423C22.2571 4.87726 21.9386 5.00936 21.6065 5.00954C21.2744 5.00971 20.9558 4.87795 20.7209 4.64324C20.4859 4.40853 20.3538 4.09009 20.3536 3.75798C20.3536 3.42587 20.4856 3.10736 20.7204 2.87253C20.9552 2.63769 21.2738 2.50576 21.6059 2.50576C21.938 2.50576 22.2565 2.63769 22.4913 2.87253C22.7261 3.10736 22.8581 3.42455 22.8581 3.75665ZM2.83451 3.75665C2.8346 3.9211 2.8023 4.08395 2.73945 4.23591C2.6766 4.38787 2.58443 4.52596 2.46822 4.6423C2.352 4.75864 2.214 4.85095 2.06211 4.91396C1.91022 4.97697 1.7474 5.00945 1.58296 5.00954C1.41852 5.00962 1.25566 4.97732 1.10371 4.91447C0.951746 4.85162 0.813654 4.75946 0.697313 4.64324C0.580972 4.52702 0.488661 4.38903 0.425651 4.23713C0.362641 4.08524 0.330165 3.92242 0.330078 3.75798C0.330078 3.42587 0.462008 3.10736 0.696844 2.87253C0.931681 2.63769 1.25019 2.50576 1.5823 2.50576C1.91441 2.50576 2.23291 2.63769 2.46775 2.87253C2.70258 3.10736 2.83451 3.42455 2.83451 3.75665Z" fill="#FFC84B"/>
<path id="Vector_3" fill-rule="evenodd" clip-rule="evenodd" d="M5.30078 17.225C5.30078 17.0493 5.37059 16.8808 5.49484 16.7566C5.61909 16.6323 5.78761 16.5625 5.96333 16.5625H17.5407C17.7164 16.5625 17.885 16.6323 18.0092 16.7566C18.1335 16.8808 18.2033 17.0493 18.2033 17.225C18.2033 17.4008 18.1335 17.5693 18.0092 17.6935C17.885 17.8178 17.7164 17.8876 17.5407 17.8876H5.96333C5.78761 17.8876 5.61909 17.8178 5.49484 17.6935C5.37059 17.5693 5.30078 17.4008 5.30078 17.225Z" fill="#FFC84B"/>
</g>
</g>
</g>
</g>
</g>
</g>
<defs>
<linearGradient id="paint0_linear_73_107" x1="287" y1="-415" x2="851" y2="121" gradientUnits="userSpaceOnUse">
<stop stop-color="#E23744"/>
<stop offset="1" stop-color="#E23744" stop-opacity="0.49"/>
</linearGradient>
</defs>
</svg>
