<svg width="27" height="27" viewBox="0 0 27 27" fill="none" xmlns="http://www.w3.org/2000/svg">
<path d="M20.9008 12.1016H5.50078C4.28575 12.1016 3.30078 13.0865 3.30078 14.3016V22.0016C3.30078 23.2166 4.28575 24.2016 5.50078 24.2016H20.9008C22.1158 24.2016 23.1008 23.2166 23.1008 22.0016V14.3016C23.1008 13.0865 22.1158 12.1016 20.9008 12.1016Z" stroke="#E23744" stroke-width="2" stroke-linecap="round" stroke-linejoin="round"/>
<path d="M7.69922 12.1031V7.70312C7.69922 6.24443 8.27868 4.84549 9.31013 3.81404C10.3416 2.78259 11.7405 2.20313 13.1992 2.20312C14.6579 2.20312 16.0569 2.78259 17.0883 3.81404C18.1198 4.84549 18.6992 6.24443 18.6992 7.70312V12.1031" stroke="#E23744" stroke-width="2" stroke-linecap="round" stroke-linejoin="round"/>
</svg>
