<svg width="117" height="37" viewBox="0 0 117 37" fill="none" xmlns="http://www.w3.org/2000/svg">
<path d="M115.183 18.0485L108.553 33.6199L107.884 36.1138H103.991L103.961 35.5663L105.269 35.3534L108.553 29.3621L103.991 18.0485L103.079 17.8357L103.11 17.2578H108.493L108.523 17.8965L107.185 18.0485L107.824 20.7857L109.709 26.6554L112.02 20.7857L112.568 18.0485L111.23 17.8965L111.26 17.2578H116.065L116.096 17.8357L115.183 18.0485Z" fill="#E23744"/>
<path d="M102.9 29.3956H97.8818L97.8514 28.7569L99.1591 28.6049L99.4328 24.0125V21.3058C99.4328 20.5353 99.2199 19.9473 98.7941 19.5418C98.3886 19.1161 97.7196 18.9032 96.7869 18.9032C95.8542 18.9032 94.9216 19.2681 93.9889 19.998V24.0125L94.2322 28.6049H94.2626L95.5704 28.7569L95.54 29.3956H90.0961L90.0657 28.7569L91.3734 28.6049L91.6471 24.0125V21.3058C91.6471 20.5353 91.4342 19.9473 91.0085 19.5418C90.603 19.1161 89.9542 18.9032 89.0621 18.9032C88.1699 18.9032 87.2677 19.2681 86.3553 19.998L86.2032 22.6744V24.0125L86.4466 28.6049H86.477L87.7847 28.7569L87.7543 29.3956H82.7058L82.6754 28.8177L83.5877 28.6049L83.8615 24.0125V22.6744L83.5877 18.082L82.5537 17.8691L82.5841 17.2913L86.5074 16.9568L86.4161 18.3557C87.7543 17.3217 89.0823 16.8047 90.4002 16.8047C91.7181 16.8047 92.7217 17.3825 93.4111 18.5382C95.0128 17.3825 96.574 16.8047 98.0947 16.8047C99.2301 16.8047 100.122 17.2001 100.771 17.9908C101.44 18.7612 101.775 19.8257 101.775 21.1841V24.0125L102.018 28.6049H102.048L102.93 28.8177L102.9 29.3956Z" fill="#E23744"/>
<path d="M74.3794 27.6914C76.5286 27.6914 77.6032 26.2011 77.6032 23.2207C77.6032 19.7739 76.7516 20.8409 74.2578 20.8409C73.1426 20.8409 71.8666 21.1417 70.9352 20.8409C70.4486 21.5303 70.6995 20.9904 70.6995 22.6733C70.6995 26.0187 71.9261 27.6914 74.3794 27.6914ZM74.0753 29.3945C72.1897 29.3945 70.7198 28.8471 69.6655 27.7522C68.6111 26.6371 68.084 25.0759 68.084 23.0686C68.084 21.0411 68.3944 20.1566 69.5096 18.9401C70.6247 17.7033 72.3722 17.9897 74.2578 17.9897C76.1637 17.9897 77.9795 17.8452 79.0136 18.9401C80.0679 20.0147 80.2491 20.6255 80.2491 22.6733C80.2491 24.7008 79.6915 26.3329 78.5764 27.5697C77.4613 28.7862 75.9609 29.3945 74.0753 29.3945Z" fill="#E23744"/>
<path d="M53.2851 11.7829L52.9202 17.0139V18.6562H62.2873V16.9835L61.9224 11.7829L60.7059 11.6309L60.7363 10.9922H65.9369L65.9673 11.57L65.0549 11.7829L64.6899 17.0139V23.4006L65.0549 28.6012L65.9673 28.8141L65.9369 29.3919H60.7363L60.7059 28.7533L61.9224 28.6012L62.2873 23.3702V20.6939H52.9202V23.4006L53.2851 28.6012L54.5016 28.7533L54.4712 29.3919H49.2706L49.2402 28.8141L50.1526 28.6012L50.5176 23.3702V16.9835L50.1526 11.7829L49.2402 11.57L49.2706 10.9922H54.4712L54.5016 11.6309L53.2851 11.7829Z" fill="#E23744"/>
<path d="M35.7823 29.8518C34.1603 29.8518 32.8222 29.2942 31.7678 28.1791C30.7338 27.0639 30.2168 25.523 30.2168 23.5563C30.2168 21.5694 30.7541 19.9473 31.8287 18.6903C32.9033 17.4332 34.3225 16.8047 36.0865 16.8047C37.8707 16.8047 39.1886 17.2102 40.0401 18.0212C40.8917 18.8322 41.3175 20.0994 41.3175 21.8228C41.3175 22.3094 41.2871 22.8264 41.2262 23.3739H32.8323C32.8323 24.8134 33.1466 25.9691 33.7751 26.8409C34.4036 27.7127 35.3059 28.1487 36.4818 28.1487C37.6578 28.1487 38.8338 27.7026 40.0097 26.8105L40.2226 25.5636L40.7396 25.594L40.9525 29.8214H40.4659L40.1922 29.1219C38.8743 29.6085 37.4044 29.8518 35.7823 29.8518ZM32.8931 21.7924L38.7932 21.762C38.7932 20.6063 38.5702 19.775 38.1241 19.2681C37.6781 18.7612 36.9786 18.5078 36.0256 18.5078C34.14 18.5078 33.0959 19.6027 32.8931 21.7924Z" fill="#E23744"/>
<path d="M15.655 29.4L15.6246 28.8222L16.537 28.6093L16.8107 23.9257V16.4442L16.537 11.8518L15.5029 11.6389L15.5333 11.0611L19.4566 10.7266L19.1525 16.4442V18.5427C20.5717 17.387 21.9403 16.8091 23.2582 16.8091C24.5964 16.8091 25.5898 17.1944 26.2387 17.9648C26.9077 18.7353 27.2423 19.8099 27.2423 21.1886V23.9865L27.4856 28.6093L28.398 28.8222L28.3675 29.4H23.3494L23.319 28.7614L24.6268 28.6093L24.9005 23.9865V21.3102C24.9005 20.5398 24.6775 19.9518 24.2314 19.5463C23.8056 19.1205 23.1264 18.9076 22.1937 18.9076C21.2611 18.9076 20.2473 19.3131 19.1525 20.1241V23.9257L19.4262 28.6093L20.7948 28.7614L20.7643 29.4H15.655Z" fill="#E23744"/>
<path d="M1.60937 10.8742L5.4718 11.087H9.88165L13.7441 10.8742L13.8961 9.99219H14.474L14.5956 14.3108H14.0178L13.7441 13.1247L9.18216 12.9726L8.90844 17.0175V23.4042L9.2734 28.6048L10.642 28.8177L10.6116 29.3956H4.80272L4.7723 28.8177L6.14088 28.6048L6.50583 23.3738V16.9871L6.2017 12.9726L1.60937 13.1247L1.33566 14.3108H0.757812L0.879464 9.99219H1.45731L1.60937 10.8742Z" fill="#E23744"/>
<path d="M78.5755 16.1896C75.016 14.6572 72.2458 14.1658 68.3052 14.6118L68.255 12.369C64.7061 11.8927 65.9845 8.19337 68.2068 8.27331C69.1195 8.30614 69.6218 8.95176 69.1243 9.53188C70.389 8.65832 71.9072 8.68997 72.9225 9.37679C73.8199 7.7271 75.4028 6.77014 77.6228 7.67489C79.4914 8.43646 81.2116 11.0077 78.4149 14.1927L78.5755 16.1896Z" fill="#E23744" stroke="#E23744" stroke-width="0.00920389"/>
<path d="M68.3192 14.8485C72.16 14.5063 74.4831 14.8811 78.6224 16.4176L78.7376 17.121C74.3048 15.8999 72.2604 16.8486 68.7305 16.9427L68.3192 14.8485Z" fill="#E23744" stroke="#E23744" stroke-width="0.00930675"/>
<path d="M52.3591 31.2188L50.4773 35.815H49.9413L50.5572 34.3095L49.2969 31.2188H49.8729L50.8537 33.7507L51.8231 31.2188H52.3591ZM54.1296 34.3951C53.8369 34.3951 53.5708 34.3285 53.3313 34.1955C53.0956 34.0624 52.9093 33.8743 52.7724 33.6309C52.6394 33.3838 52.5728 33.0987 52.5728 32.7756C52.5728 32.4563 52.6413 32.1749 52.7781 31.9316C52.9188 31.6845 53.1089 31.4964 53.3484 31.3671C53.5879 31.234 53.8559 31.1675 54.1524 31.1675C54.4489 31.1675 54.7169 31.234 54.9564 31.3671C55.1959 31.4964 55.3841 31.6826 55.521 31.9259C55.6616 32.1692 55.732 32.4525 55.732 32.7756C55.732 33.0987 55.6597 33.3838 55.5153 33.6309C55.3746 33.8743 55.1826 34.0624 54.9393 34.1955C54.696 34.3285 54.4261 34.3951 54.1296 34.3951ZM54.1296 33.9389C54.3159 33.9389 54.4907 33.8952 54.6542 33.8077C54.8177 33.7203 54.9488 33.5891 55.0477 33.4143C55.1503 33.2394 55.2016 33.0265 55.2016 32.7756C55.2016 32.5247 55.1522 32.3118 55.0534 32.1369C54.9545 31.962 54.8253 31.8328 54.6656 31.7492C54.506 31.6617 54.333 31.618 54.1467 31.618C53.9566 31.618 53.7817 31.6617 53.6221 31.7492C53.4662 31.8328 53.3408 31.962 53.2457 32.1369C53.1507 32.3118 53.1032 32.5247 53.1032 32.7756C53.1032 33.0303 53.1488 33.2451 53.24 33.42C53.3351 33.5948 53.4605 33.726 53.6164 33.8134C53.7722 33.8971 53.9433 33.9389 54.1296 33.9389ZM59.0716 31.2188V34.3438H58.5527V33.8819C58.4538 34.0415 58.3151 34.167 58.1364 34.2582C57.9615 34.3457 57.7676 34.3894 57.5547 34.3894C57.3114 34.3894 57.0928 34.3399 56.899 34.2411C56.7051 34.1385 56.5511 33.9864 56.4371 33.7849C56.3268 33.5834 56.2717 33.3382 56.2717 33.0493V31.2188H56.7849V32.9809C56.7849 33.2888 56.8628 33.5264 57.0187 33.6937C57.1746 33.8571 57.3875 33.9389 57.6574 33.9389C57.9349 33.9389 58.1535 33.8533 58.3132 33.6823C58.4728 33.5112 58.5527 33.2622 58.5527 32.9353V31.2188H59.0716ZM60.3526 31.7263C60.4438 31.5477 60.5731 31.4089 60.7404 31.3101C60.9114 31.2112 61.1186 31.1618 61.3619 31.1618V31.6978H61.2251C60.6434 31.6978 60.3526 32.0134 60.3526 32.6444V34.3438H59.8337V31.2188H60.3526V31.7263ZM63.772 31.7948C63.8747 31.6161 64.0268 31.4678 64.2282 31.35C64.4335 31.2283 64.6711 31.1675 64.941 31.1675C65.2186 31.1675 65.4695 31.234 65.6938 31.3671C65.9218 31.5002 66.1005 31.6883 66.2298 31.9316C66.359 32.1711 66.4237 32.4506 66.4237 32.7699C66.4237 33.0854 66.359 33.3667 66.2298 33.6138C66.1005 33.8609 65.9218 34.0529 65.6938 34.1898C65.4695 34.3266 65.2186 34.3951 64.941 34.3951C64.6749 34.3951 64.4392 34.3361 64.2339 34.2183C64.0325 34.0966 63.8785 33.9465 63.772 33.7678V35.8264H63.2531V31.2188H63.772V31.7948ZM65.8933 32.7699C65.8933 32.5342 65.8458 32.3289 65.7508 32.154C65.6557 31.9792 65.5265 31.8461 65.363 31.7549C65.2033 31.6636 65.0266 31.618 64.8327 31.618C64.6426 31.618 64.4658 31.6655 64.3024 31.7606C64.1427 31.8518 64.0134 31.9868 63.9146 32.1654C63.8196 32.3403 63.772 32.5437 63.772 32.7756C63.772 33.0113 63.8196 33.2185 63.9146 33.3972C64.0134 33.572 64.1427 33.707 64.3024 33.802C64.4658 33.8933 64.6426 33.9389 64.8327 33.9389C65.0266 33.9389 65.2033 33.8933 65.363 33.802C65.5265 33.707 65.6557 33.572 65.7508 33.3972C65.8458 33.2185 65.8933 33.0094 65.8933 32.7699ZM69.8439 32.6615C69.8439 32.7604 69.8382 32.8649 69.8267 32.9752H67.3291C67.3481 33.2831 67.4526 33.5245 67.6427 33.6994C67.8366 33.8705 68.0704 33.956 68.3441 33.956C68.5684 33.956 68.7547 33.9047 68.903 33.802C69.055 33.6956 69.1615 33.5549 69.2223 33.38H69.7811C69.6975 33.6804 69.5302 33.9256 69.2793 34.1157C69.0284 34.3019 68.7167 34.3951 68.3441 34.3951C68.0476 34.3951 67.7815 34.3285 67.5458 34.1955C67.3139 34.0624 67.1314 33.8743 66.9984 33.6309C66.8653 33.3838 66.7988 33.0987 66.7988 32.7756C66.7988 32.4525 66.8634 32.1692 66.9927 31.9259C67.1219 31.6826 67.3025 31.4964 67.5344 31.3671C67.7701 31.234 68.04 31.1675 68.3441 31.1675C68.6406 31.1675 68.903 31.2321 69.1311 31.3614C69.3591 31.4906 69.534 31.6693 69.6557 31.8974C69.7811 32.1217 69.8439 32.3764 69.8439 32.6615ZM69.3078 32.5532C69.3078 32.3555 69.2641 32.1863 69.1767 32.0457C69.0892 31.9012 68.9695 31.7929 68.8174 31.7206C68.6692 31.6446 68.5038 31.6066 68.3213 31.6066C68.059 31.6066 67.8347 31.6902 67.6484 31.8575C67.466 32.0248 67.3614 32.2567 67.3348 32.5532H69.3078ZM70.2209 32.7699C70.2209 32.4506 70.2855 32.1711 70.4148 31.9316C70.544 31.6883 70.7208 31.5002 70.9451 31.3671C71.1732 31.234 71.426 31.1675 71.7035 31.1675C71.9772 31.1675 72.2148 31.2264 72.4163 31.3443C72.6178 31.4621 72.768 31.6104 72.8668 31.7891V31.2188H73.3914V34.3438H72.8668V33.7621C72.7641 33.9446 72.6102 34.0966 72.4049 34.2183C72.2034 34.3361 71.9677 34.3951 71.6978 34.3951C71.4203 34.3951 71.1694 34.3266 70.9451 34.1898C70.7208 34.0529 70.544 33.8609 70.4148 33.6138C70.2855 33.3667 70.2209 33.0854 70.2209 32.7699ZM72.8668 32.7756C72.8668 32.5399 72.8193 32.3346 72.7242 32.1597C72.6292 31.9849 72.4999 31.8518 72.3365 31.7606C72.1768 31.6655 72 31.618 71.8061 31.618C71.6123 31.618 71.4355 31.6636 71.2758 31.7549C71.1162 31.8461 70.9888 31.9792 70.8938 32.154C70.7987 32.3289 70.7512 32.5342 70.7512 32.7699C70.7512 33.0094 70.7987 33.2185 70.8938 33.3972C70.9888 33.572 71.1162 33.707 71.2758 33.802C71.4355 33.8933 71.6123 33.9389 71.8061 33.9389C72 33.9389 72.1768 33.8933 72.3365 33.802C72.4999 33.707 72.6292 33.572 72.7242 33.3972C72.8193 33.2185 72.8668 33.0113 72.8668 32.7756ZM73.9604 32.7756C73.9604 32.4525 74.025 32.1711 74.1543 31.9316C74.2835 31.6883 74.4622 31.5002 74.6903 31.3671C74.9222 31.234 75.1864 31.1675 75.4829 31.1675C75.8669 31.1675 76.1824 31.2607 76.4295 31.4469C76.6805 31.6332 76.8458 31.8917 76.9257 32.2225H76.3668C76.3136 32.0324 76.2091 31.8822 76.0532 31.772C75.9011 31.6617 75.711 31.6066 75.4829 31.6066C75.1864 31.6066 74.9469 31.7092 74.7644 31.9145C74.582 32.116 74.4907 32.403 74.4907 32.7756C74.4907 33.1519 74.582 33.4428 74.7644 33.6481C74.9469 33.8533 75.1864 33.956 75.4829 33.956C75.711 33.956 75.9011 33.9028 76.0532 33.7963C76.2053 33.6899 76.3098 33.5378 76.3668 33.3401H76.9257C76.842 33.6595 76.6748 33.9161 76.4238 34.11C76.1729 34.3 75.8593 34.3951 75.4829 34.3951C75.1864 34.3951 74.9222 34.3285 74.6903 34.1955C74.4622 34.0624 74.2835 33.8743 74.1543 33.6309C74.025 33.3876 73.9604 33.1025 73.9604 32.7756ZM80.3552 32.6615C80.3552 32.7604 80.3495 32.8649 80.3381 32.9752H77.8404C77.8595 33.2831 77.964 33.5245 78.1541 33.6994C78.348 33.8705 78.5818 33.956 78.8555 33.956C79.0798 33.956 79.266 33.9047 79.4143 33.802C79.5664 33.6956 79.6728 33.5549 79.7336 33.38H80.2925C80.2088 33.6804 80.0416 33.9256 79.7907 34.1157C79.5398 34.3019 79.228 34.3951 78.8555 34.3951C78.5589 34.3951 78.2928 34.3285 78.0571 34.1955C77.8252 34.0624 77.6428 33.8743 77.5097 33.6309C77.3766 33.3838 77.3101 33.0987 77.3101 32.7756C77.3101 32.4525 77.3747 32.1692 77.504 31.9259C77.6333 31.6826 77.8138 31.4964 78.0457 31.3671C78.2814 31.234 78.5513 31.1675 78.8555 31.1675C79.152 31.1675 79.4143 31.2321 79.6424 31.3614C79.8705 31.4906 80.0454 31.6693 80.167 31.8974C80.2925 32.1217 80.3552 32.3764 80.3552 32.6615ZM79.8192 32.5532C79.8192 32.3555 79.7755 32.1863 79.688 32.0457C79.6006 31.9012 79.4808 31.7929 79.3288 31.7206C79.1805 31.6446 79.0151 31.6066 78.8327 31.6066C78.5704 31.6066 78.3461 31.6902 78.1598 31.8575C77.9773 32.0248 77.8728 32.2567 77.8461 32.5532H79.8192ZM82.1977 31.6465H81.542V34.3438H81.0231V31.6465H80.6182V31.2188H81.0231V30.9964C81.0231 30.6467 81.1124 30.392 81.2911 30.2323C81.4735 30.0689 81.7644 29.9871 82.1635 29.9871V30.4205C81.9354 30.4205 81.7739 30.4661 81.6788 30.5574C81.5876 30.6448 81.542 30.7912 81.542 30.9964V31.2188H82.1977V31.6465ZM85.4601 31.2188V34.3438H84.9412V33.8819C84.8423 34.0415 84.7036 34.167 84.5249 34.2582C84.35 34.3457 84.1562 34.3894 83.9433 34.3894C83.7 34.3894 83.4814 34.3399 83.2875 34.2411C83.0936 34.1385 82.9396 33.9864 82.8256 33.7849C82.7153 33.5834 82.6602 33.3382 82.6602 33.0493V31.2188H83.1734V32.9809C83.1734 33.2888 83.2514 33.5264 83.4072 33.6937C83.5631 33.8571 83.776 33.9389 84.0459 33.9389C84.3234 33.9389 84.542 33.8533 84.7017 33.6823C84.8613 33.5112 84.9412 33.2622 84.9412 32.9353V31.2188H85.4601ZM86.7411 30.124V34.3438H86.2222V30.124H86.7411ZM89.4366 30.124V34.3438H88.9177V30.124H89.4366ZM90.475 30.7113C90.3762 30.7113 90.2925 30.6771 90.2241 30.6087C90.1557 30.5402 90.1215 30.4566 90.1215 30.3578C90.1215 30.2589 90.1557 30.1753 90.2241 30.1069C90.2925 30.0384 90.3762 30.0042 90.475 30.0042C90.57 30.0042 90.6499 30.0384 90.7145 30.1069C90.7829 30.1753 90.8171 30.2589 90.8171 30.3578C90.8171 30.4566 90.7829 30.5402 90.7145 30.6087C90.6499 30.6771 90.57 30.7113 90.475 30.7113ZM90.7259 31.2188V34.3438H90.207V31.2188H90.7259ZM92.6596 33.8647L93.629 31.2188H94.1821L92.9561 34.3438H92.3516L91.1256 31.2188H91.6844L92.6596 33.8647ZM94.8467 30.7113C94.7479 30.7113 94.6642 30.6771 94.5958 30.6087C94.5274 30.5402 94.4931 30.4566 94.4931 30.3578C94.4931 30.2589 94.5274 30.1753 94.5958 30.1069C94.6642 30.0384 94.7479 30.0042 94.8467 30.0042C94.9417 30.0042 95.0216 30.0384 95.0862 30.1069C95.1546 30.1753 95.1888 30.2589 95.1888 30.3578C95.1888 30.4566 95.1546 30.5402 95.0862 30.6087C95.0216 30.6771 94.9417 30.7113 94.8467 30.7113ZM95.0976 31.2188V34.3438H94.5787V31.2188H95.0976ZM97.3905 31.1618C97.7707 31.1618 98.0786 31.2778 98.3143 31.5097C98.55 31.7378 98.6678 32.0685 98.6678 32.5019V34.3438H98.1546V32.576C98.1546 32.2643 98.0767 32.0267 97.9208 31.8632C97.765 31.6959 97.5521 31.6123 97.2822 31.6123C97.0084 31.6123 96.7898 31.6978 96.6264 31.8689C96.4667 32.04 96.3869 32.289 96.3869 32.6159V34.3438H95.868V31.2188H96.3869V31.6636C96.4895 31.504 96.6283 31.3804 96.8032 31.293C96.9818 31.2055 97.1776 31.1618 97.3905 31.1618ZM100.69 31.1675C100.96 31.1675 101.196 31.2264 101.397 31.3443C101.603 31.4621 101.755 31.6104 101.853 31.7891V31.2188H102.378V34.4122C102.378 34.6973 102.317 34.9501 102.196 35.1706C102.074 35.3949 101.899 35.5698 101.671 35.6952C101.447 35.8207 101.184 35.8834 100.884 35.8834C100.473 35.8834 100.131 35.7865 99.8576 35.5926C99.5839 35.3987 99.4224 35.1345 99.3729 34.7999H99.8861C99.9432 34.99 100.061 35.1421 100.24 35.2561C100.418 35.374 100.633 35.4329 100.884 35.4329C101.169 35.4329 101.401 35.3436 101.58 35.1649C101.762 34.9862 101.853 34.7353 101.853 34.4122V33.7564C101.751 33.9389 101.599 34.0909 101.397 34.2126C101.196 34.3342 100.96 34.3951 100.69 34.3951C100.413 34.3951 100.16 34.3266 99.9318 34.1898C99.7075 34.0529 99.5307 33.8609 99.4014 33.6138C99.2722 33.3667 99.2076 33.0854 99.2076 32.7699C99.2076 32.4506 99.2722 32.1711 99.4014 31.9316C99.5307 31.6883 99.7075 31.5002 99.9318 31.3671C100.16 31.234 100.413 31.1675 100.69 31.1675ZM101.853 32.7756C101.853 32.5399 101.806 32.3346 101.711 32.1597C101.616 31.9849 101.487 31.8518 101.323 31.7606C101.163 31.6655 100.987 31.618 100.793 31.618C100.599 31.618 100.422 31.6636 100.263 31.7549C100.103 31.8461 99.9755 31.9792 99.8804 32.154C99.7854 32.3289 99.7379 32.5342 99.7379 32.7699C99.7379 33.0094 99.7854 33.2185 99.8804 33.3972C99.9755 33.572 100.103 33.707 100.263 33.802C100.422 33.8933 100.599 33.9389 100.793 33.9389C100.987 33.9389 101.163 33.8933 101.323 33.802C101.487 33.707 101.616 33.572 101.711 33.3972C101.806 33.2185 101.853 33.0113 101.853 32.7756Z" fill="#E23744" fill-opacity="0.6"/>
</svg>
