<svg width="72" height="72" viewBox="0 0 72 72" fill="none" xmlns="http://www.w3.org/2000/svg">
<path d="M33.5201 12.0784C34.0306 9.53788 37.6623 9.53788 38.1727 12.0784C38.5935 14.1725 41.3505 14.6879 42.4993 12.8872C43.893 10.7026 47.2795 12.0145 46.8377 14.5679C46.4736 16.6726 48.8583 18.1491 50.58 16.885C52.6688 15.3514 55.3526 17.7981 54.0183 20.0194C52.9184 21.8505 54.6087 24.0888 56.6709 23.5319C59.1725 22.8565 60.7913 26.1074 58.7447 27.6967C57.0576 29.0068 57.8252 31.7046 59.9492 31.9303C62.526 32.2041 62.8611 35.8204 60.3785 36.563C58.3321 37.1752 58.0733 39.968 59.9724 40.9458C62.2762 42.132 61.2824 45.6251 58.6992 45.4208C56.5698 45.2524 55.3196 47.7631 56.7372 49.3609C58.457 51.2992 56.2684 54.1974 53.9334 53.0737C52.0087 52.1475 49.9359 54.0371 50.6806 56.039C51.584 58.4677 48.4963 60.3796 46.7249 58.4883C45.2648 56.9293 42.6493 57.9425 42.6206 60.0783C42.5856 62.6694 39.0158 63.3367 38.0472 60.9332C37.2488 58.9521 34.444 58.9521 33.6456 60.9332C32.6771 63.3367 29.1072 62.6694 29.0723 60.0783C29.0435 57.9425 26.4281 56.9293 24.968 58.4883C23.1966 60.3796 20.1088 58.4677 21.0123 56.039C21.757 54.0371 19.6842 52.1475 17.7595 53.0737C15.4245 54.1974 13.2359 51.2992 14.9557 49.3609C16.3733 47.7631 15.1231 45.2524 12.9937 45.4208C10.4105 45.6251 9.41664 42.132 11.7205 40.9458C13.6195 39.968 13.3608 37.1752 11.3144 36.563C8.83178 35.8204 9.16687 32.2041 11.7436 31.9303C13.8677 31.7046 14.6353 29.0068 12.9482 27.6967C10.9015 26.1074 12.5203 22.8565 15.022 23.5319C17.0842 24.0888 18.7744 21.8505 17.6746 20.0194C16.3402 17.7981 19.0241 15.3514 21.1128 16.885C22.8346 18.1491 25.2193 16.6726 24.8551 14.5679C24.4134 12.0145 27.7998 10.7026 29.1935 12.8872C30.3424 14.6879 33.0994 14.1725 33.5201 12.0784Z" fill="#07794C"/>
<path d="M36.6078 42.1217V41.1276C36.6078 40.4403 36.7489 39.8114 37.0312 39.2407C37.3196 38.6639 37.7369 38.2036 38.283 37.86C38.8353 37.5102 39.5041 37.3353 40.2896 37.3353C41.0873 37.3353 41.7562 37.5102 42.2962 37.86C42.8362 38.2036 43.2443 38.6639 43.5204 39.2407C43.7965 39.8114 43.9346 40.4403 43.9346 41.1276V42.1217C43.9346 42.809 43.7935 43.441 43.5112 44.0178C43.2351 44.5885 42.8239 45.0487 42.2778 45.3985C41.7378 45.7422 41.0751 45.914 40.2896 45.914C39.4919 45.914 38.8199 45.7422 38.2738 45.3985C37.7277 45.0487 37.3135 44.5885 37.0312 44.0178C36.7489 43.441 36.6078 42.809 36.6078 42.1217ZM38.4855 41.1276V42.1217C38.4855 42.6924 38.6205 43.2048 38.8905 43.6589C39.1605 44.1068 39.6269 44.3308 40.2896 44.3308C40.9339 44.3308 41.388 44.1068 41.6519 43.6589C41.9219 43.2048 42.0569 42.6924 42.0569 42.1217V41.1276C42.0569 40.5569 41.928 40.0476 41.6703 39.5997C41.4126 39.1456 40.9523 38.9185 40.2896 38.9185C39.6453 38.9185 39.182 39.1456 38.8997 39.5997C38.6236 40.0476 38.4855 40.5569 38.4855 41.1276ZM27.2191 31.334V30.3399C27.2191 29.6526 27.3603 29.0236 27.6426 28.453C27.931 27.8761 28.3482 27.4159 28.8944 27.0723C29.4466 26.7225 30.1155 26.5476 30.901 26.5476C31.6987 26.5476 32.3676 26.7225 32.9076 27.0723C33.4476 27.4159 33.8556 27.8761 34.1318 28.453C34.4079 29.0236 34.546 29.6526 34.546 30.3399V31.334C34.546 32.0212 34.4048 32.6533 34.1226 33.2301C33.8464 33.8008 33.4353 34.261 32.8891 34.6108C32.3491 34.9544 31.6864 35.1262 30.901 35.1262C30.1032 35.1262 29.4313 34.9544 28.8852 34.6108C28.339 34.261 27.9248 33.8008 27.6426 33.2301C27.3603 32.6533 27.2191 32.0212 27.2191 31.334ZM29.0969 30.3399V31.334C29.0969 31.9047 29.2319 32.417 29.5019 32.8711C29.7719 33.3191 30.2382 33.5431 30.901 33.5431C31.5453 33.5431 31.9994 33.3191 32.2632 32.8711C32.5332 32.417 32.6682 31.9047 32.6682 31.334V30.3399C32.6682 29.7692 32.5394 29.2599 32.2816 28.8119C32.0239 28.3578 31.5637 28.1308 30.901 28.1308C30.2566 28.1308 29.7934 28.3578 29.5111 28.8119C29.2349 29.2599 29.0969 29.7692 29.0969 30.3399ZM27.9187 45.6562L40.8787 26.8053H42.9773L30.0173 45.6562H27.9187Z" fill="white"/>
</svg>
