<svg width="29" height="29" viewBox="0 0 29 29" fill="none" xmlns="http://www.w3.org/2000/svg">
<path d="M26.4009 20.3026V23.9026C26.4023 24.2368 26.3338 24.5676 26.1999 24.8738C26.066 25.18 25.8697 25.4549 25.6234 25.6808C25.3771 25.9067 25.0864 26.0787 24.7698 26.1858C24.4532 26.2929 24.1177 26.3326 23.7849 26.3026C20.0923 25.9013 16.5453 24.6395 13.4289 22.6186C10.5295 20.7762 8.0713 18.318 6.2289 15.4186C4.20087 12.288 2.93879 8.72375 2.5449 5.01455C2.51491 4.68271 2.55435 4.34827 2.6607 4.0325C2.76705 3.71674 2.93798 3.42658 3.16262 3.1805C3.38725 2.93442 3.66066 2.73781 3.96545 2.60318C4.27023 2.46856 4.59971 2.39887 4.9329 2.39855H8.5329C9.11526 2.39282 9.67985 2.59905 10.1214 2.97879C10.563 3.35854 10.8514 3.88589 10.9329 4.46255C11.0848 5.61463 11.3666 6.74583 11.7729 7.83455C11.9343 8.26406 11.9693 8.73085 11.8736 9.17961C11.7779 9.62837 11.5555 10.0403 11.2329 10.3666L9.7089 11.8906C11.4172 14.8948 13.9046 17.3823 16.9089 19.0906L18.4329 17.5666C18.7592 17.2439 19.1711 17.0216 19.6198 16.9259C20.0686 16.8302 20.5354 16.8651 20.9649 17.0266C22.0536 17.4328 23.1848 17.7146 24.3369 17.8666C24.9198 17.9488 25.4522 18.2424 25.8327 18.6915C26.2133 19.1407 26.4155 19.714 26.4009 20.3026Z" stroke="white" stroke-width="2.4" stroke-linecap="round" stroke-linejoin="round"/>
</svg>
