<svg width="25" height="25" viewBox="0 0 25 25" fill="none" xmlns="http://www.w3.org/2000/svg">
<path d="M12.0957 2.5C6.5727 2.5 2.0957 6.977 2.0957 12.5C2.0957 18.023 6.5727 22.5 12.0957 22.5C17.6187 22.5 22.0957 18.023 22.0957 12.5C22.0957 6.977 17.6187 2.5 12.0957 2.5Z" stroke="white" stroke-width="1.5" stroke-linecap="round" stroke-linejoin="round"/>
<path d="M4.36719 18.846C4.36719 18.846 6.59619 16 12.0962 16C17.5962 16 19.8262 18.846 19.8262 18.846M12.0962 12.5C12.8918 12.5 13.6549 12.1839 14.2175 11.6213C14.7801 11.0587 15.0962 10.2956 15.0962 9.5C15.0962 8.70435 14.7801 7.94129 14.2175 7.37868C13.6549 6.81607 12.8918 6.5 12.0962 6.5C11.3005 6.5 10.5375 6.81607 9.97487 7.37868C9.41226 7.94129 9.09619 8.70435 9.09619 9.5C9.09619 10.2956 9.41226 11.0587 9.97487 11.6213C10.5375 12.1839 11.3005 12.5 12.0962 12.5Z" stroke="white" stroke-width="1.5" stroke-linecap="round" stroke-linejoin="round"/>
</svg>
