<svg width="203" height="56" viewBox="0 0 203 56" fill="none" xmlns="http://www.w3.org/2000/svg">
<rect x="4" y="10" width="34.1" height="35.2" rx="4.4" fill="url(#paint0_radial_2259_4182)"/>
<rect x="5.54883" y="11.6016" width="31" height="32" rx="15.5" fill="#E23744"/>
<path fill-rule="evenodd" clip-rule="evenodd" d="M11.8542 19.0493C11.7725 19.0837 11.6221 19.2017 11.5199 19.3115L11.3342 19.5114V21.955V24.3988L11.5771 24.6416L11.8199 24.8844H15.7537H19.6875L19.9303 24.6416L20.1731 24.3988V21.9505V19.5022L19.9303 19.2594L19.6876 19.0166L15.8451 19.0017C13.7318 18.9936 11.9359 19.015 11.8542 19.0493ZM11.9804 19.6628C11.8531 19.7901 11.8531 24.1109 11.9804 24.2382C12.1089 24.3666 19.3985 24.3666 19.5269 24.2382C19.6542 24.1109 19.6542 19.7901 19.5269 19.6628C19.3985 19.5344 12.1089 19.5344 11.9804 19.6628ZM24.3697 19.8708V20.1679H24.0726H23.7755V20.465V20.7621H24.0726H24.3697V21.0592V21.3563H24.6669H24.964V21.0592V20.7621H25.2611H25.5582V20.465V20.1679H25.2611H24.964V19.8708V19.5737H24.6669H24.3697V19.8708ZM12.4829 20.2078L12.3059 20.3963L14.0661 22.1566L15.8265 23.917L16.0304 23.7131L16.2342 23.5092L14.4905 21.7643C13.5313 20.8046 12.7271 20.0193 12.7033 20.0193C12.6795 20.0193 12.5803 20.1042 12.4829 20.2078ZM15.454 20.2078L15.2769 20.3963L17.0372 22.1566L18.7975 23.917L19.0014 23.7131L19.2052 23.5092L17.4615 21.7643C16.5024 20.8046 15.6982 20.0193 15.6744 20.0193C15.6505 20.0193 15.5514 20.1042 15.454 20.2078ZM24.3697 20.465V20.7621H24.6669H24.964V20.465V20.1679H24.6669H24.3697V20.465ZM21.3987 21.6534V21.9505H21.1016H20.8045V22.2476V22.5447H21.1016H21.3987V22.8418V23.1389H21.6958H21.9929V22.8418V22.5447H22.29H22.5871V22.2476V21.9505H22.29H21.9929V21.6534V21.3563H21.6958H21.3987V21.6534ZM21.3987 22.2476V22.5447H21.6958H21.9929V22.2476V21.9505H21.6958H21.3987V22.2476ZM27.3408 22.8418V23.1389H27.0437H26.7466V23.436V23.7331H27.0437H27.3408V24.0303V24.3274H27.6379H27.935V24.0303V23.7331H28.2321H28.5292V23.436V23.1389H28.2321H27.935V22.8418V22.5447H27.6379H27.3408V22.8418ZM27.3408 23.436V23.7331H27.6379H27.935V23.436V23.1389H27.6379H27.3408V23.436ZM20.9868 25.1039C20.8275 25.2632 20.8045 25.3527 20.8045 25.8129C20.8045 26.273 20.8275 26.3626 20.9868 26.5219C21.0871 26.6221 21.2208 26.7042 21.2839 26.7042C21.3836 26.7042 21.3987 26.8993 21.3987 28.1897C21.3987 29.4801 21.3836 29.6753 21.2839 29.6753C21.2208 29.6753 21.0871 29.7573 20.9868 29.8576C20.8275 30.0169 20.8045 30.1064 20.8045 30.5666C20.8045 31.0267 20.8275 31.1163 20.9868 31.2755C21.0871 31.3758 21.2208 31.4579 21.2839 31.4579C21.3712 31.4579 21.399 31.5425 21.3998 31.8107C21.4034 32.9609 22.0863 34.2563 23.0222 34.8886C23.2119 35.0167 23.3779 35.1298 23.3913 35.14C23.4143 35.1574 23.1853 36.041 23.0222 36.5644L22.947 36.8058H20.9565H18.9661L18.922 36.5853C18.8242 36.0961 18.1132 35.6189 17.4806 35.6178L17.2392 35.6174V34.2902V32.963L17.7307 32.6756C18.3144 32.3342 18.8238 31.7999 19.1514 31.1852C19.5203 30.493 19.6137 29.9606 19.6149 28.5425L19.6161 27.2984H16.9421H14.2682V26.7042V26.11H14.8624H15.4566V26.4071V26.7042H15.7537H16.0508V26.2923C16.0508 25.954 16.0182 25.8478 15.8684 25.6981C15.6877 25.5173 15.6747 25.5158 14.2682 25.5158C12.8617 25.5158 12.8487 25.5173 12.6679 25.6981C12.4997 25.8662 12.4855 25.9357 12.4855 26.5894V27.2984H12.1884H11.8913L11.8924 28.5425C11.8937 29.9606 11.9871 30.493 12.356 31.1852C12.6836 31.7999 13.1929 32.3342 13.7767 32.6756L14.2682 32.963V34.2902V35.6174L14.0268 35.6178C13.3942 35.6189 12.6832 36.0961 12.5854 36.5853L12.5412 36.8058H11.7706H11V37.1029V37.4H20.5074H30.0148V37.1029V36.8058H28.795H27.5751L27.4999 36.5644C27.3368 36.041 27.1078 35.1574 27.1308 35.14C27.1442 35.1298 27.3103 35.0167 27.4999 34.8886C28.4359 34.2563 29.1188 32.9609 29.1223 31.8107C29.1231 31.5425 29.1509 31.4579 29.2382 31.4579C29.3013 31.4579 29.435 31.3758 29.5353 31.2755C29.6946 31.1163 29.7176 31.0267 29.7176 30.5666C29.7176 30.1064 29.6946 30.0169 29.5353 29.8576C29.435 29.7573 29.3013 29.6753 29.2382 29.6753C29.1385 29.6753 29.1234 29.4801 29.1234 28.1897C29.1234 26.8993 29.1385 26.7042 29.2382 26.7042C29.3013 26.7042 29.435 26.6221 29.5353 26.5219C29.6946 26.3626 29.7176 26.273 29.7176 25.8129C29.7176 25.3527 29.6946 25.2632 29.5353 25.1039L29.353 24.9216H25.2611H21.1691L20.9868 25.1039ZM21.3987 25.8129V26.11H25.2611H29.1234V25.8129V25.5158H25.2611H21.3987V25.8129ZM13.0797 26.7042V27.2984H13.3768H13.6739V26.7042V26.11H13.3768H13.0797V26.7042ZM21.9929 27.0013V27.2984H22.5871H23.1813V27.5955V27.8926H22.5871H21.9929V28.7839V29.6753H25.2611H28.5292V28.1897V26.7042H25.2611H21.9929V27.0013ZM12.4855 28.1897V28.4868H15.7537H19.0218V28.1897V27.8926H15.7537H12.4855V28.1897ZM12.4864 29.4339C12.4907 31.146 14.0156 32.6445 15.7537 32.6445C17.4918 32.6445 19.0167 31.146 19.021 29.4339L19.0218 29.081H15.7537H12.4855L12.4864 29.4339ZM21.3987 30.5666V30.8637H25.2611H29.1234V30.5666V30.2695H25.2611H21.3987V30.5666ZM21.9938 31.8107C21.998 33.5228 23.523 35.0214 25.2611 35.0214C26.9991 35.0214 28.5241 33.5228 28.5283 31.8107L28.5292 31.4579H25.2611H21.9929L21.9938 31.8107ZM14.8624 34.4104V35.6174H15.7537H16.645V34.4104V33.2034H15.7537H14.8624V34.4104ZM23.769 36.1014L23.5768 36.8058H25.2628H26.9488L26.7591 36.1187C26.6547 35.7409 26.5672 35.4258 26.5645 35.4187C26.5619 35.4115 26.3594 35.4528 26.1146 35.5103C25.4523 35.6662 24.7769 35.6397 24.0726 35.4302C23.9874 35.4048 23.9159 35.563 23.769 36.1014ZM13.6739 36.2622C13.5307 36.3165 13.154 36.6665 13.154 36.7454C13.154 36.7786 14.3239 36.8058 15.7537 36.8058C17.1835 36.8058 18.3534 36.7786 18.3534 36.7454C18.3534 36.7122 18.2509 36.5868 18.1258 36.4669L17.8982 36.2487L15.8418 36.2343C14.7108 36.2264 13.7352 36.2389 13.6739 36.2622Z" fill="black"/>
<path d="M66.3371 34.5V22.2888H61.6139V21.06H72.4811V22.2888H67.7579V34.5H66.3371ZM77.5217 34.596C76.5489 34.596 75.6721 34.3784 74.8913 33.9432C74.1233 33.4952 73.5153 32.8872 73.0673 32.1192C72.6193 31.3384 72.3953 30.4488 72.3953 29.4504C72.3953 28.4392 72.6193 27.5496 73.0673 26.7816C73.5153 26.0136 74.1233 25.412 74.8913 24.9768C75.6593 24.5416 76.5361 24.324 77.5217 24.324C78.5201 24.324 79.4033 24.5416 80.1713 24.9768C80.9521 25.412 81.5601 26.0136 81.9953 26.7816C82.4433 27.5496 82.6673 28.4392 82.6673 29.4504C82.6673 30.4488 82.4433 31.3384 81.9953 32.1192C81.5601 32.8872 80.9521 33.4952 80.1713 33.9432C79.3905 34.3784 78.5073 34.596 77.5217 34.596ZM77.5217 33.3864C78.2513 33.3864 78.8977 33.2264 79.4609 32.9064C80.0241 32.5736 80.4657 32.1128 80.7857 31.524C81.1185 30.9224 81.2849 30.2312 81.2849 29.4504C81.2849 28.6568 81.1185 27.9656 80.7857 27.3768C80.4657 26.788 80.0241 26.3336 79.4609 26.0136C78.8977 25.6808 78.2577 25.5144 77.5409 25.5144C76.8241 25.5144 76.1841 25.6808 75.6209 26.0136C75.0577 26.3336 74.6097 26.788 74.2769 27.3768C73.9441 27.9656 73.7777 28.6568 73.7777 29.4504C73.7777 30.2312 73.9441 30.9224 74.2769 31.524C74.6097 32.1128 75.0577 32.5736 75.6209 32.9064C76.1841 33.2264 76.8177 33.3864 77.5217 33.3864ZM85.4504 34.5V24.42H86.8136V34.5H85.4504ZM86.1416 22.1928C85.86 22.1928 85.6232 22.0968 85.4312 21.9048C85.2392 21.7128 85.1432 21.4824 85.1432 21.2136C85.1432 20.9448 85.2392 20.7208 85.4312 20.5416C85.6232 20.3496 85.86 20.2536 86.1416 20.2536C86.4232 20.2536 86.66 20.3432 86.852 20.5224C87.044 20.7016 87.14 20.9256 87.14 21.1944C87.14 21.476 87.044 21.7128 86.852 21.9048C86.6728 22.0968 86.436 22.1928 86.1416 22.1928ZM90.6067 34.5V20.2536H91.9699V34.5H90.6067ZM100.045 34.596C98.9949 34.596 98.0733 34.3784 97.2797 33.9432C96.4861 33.4952 95.8653 32.8872 95.4173 32.1192C94.9693 31.3384 94.7453 30.4488 94.7453 29.4504C94.7453 28.452 94.9565 27.5688 95.3789 26.8008C95.8141 26.0328 96.4029 25.4312 97.1453 24.996C97.9005 24.548 98.7453 24.324 99.6797 24.324C100.627 24.324 101.465 24.5416 102.195 24.9768C102.937 25.3992 103.52 26.0008 103.942 26.7816C104.365 27.5496 104.576 28.4392 104.576 29.4504C104.576 29.5144 104.569 29.5848 104.557 29.6616C104.557 29.7256 104.557 29.796 104.557 29.8728H95.7821V28.8552H103.827L103.289 29.2584C103.289 28.5288 103.129 27.8824 102.809 27.3192C102.502 26.7432 102.08 26.2952 101.542 25.9752C101.005 25.6552 100.384 25.4952 99.6797 25.4952C98.9885 25.4952 98.3677 25.6552 97.8173 25.9752C97.2669 26.2952 96.8381 26.7432 96.5309 27.3192C96.2237 27.8952 96.0701 28.5544 96.0701 29.2968V29.508C96.0701 30.276 96.2365 30.9544 96.5693 31.5432C96.9149 32.1192 97.3885 32.5736 97.9901 32.9064C98.6045 33.2264 99.3021 33.3864 100.083 33.3864C100.697 33.3864 101.267 33.2776 101.792 33.06C102.329 32.8424 102.79 32.5096 103.174 32.0616L103.942 32.9448C103.494 33.4824 102.931 33.892 102.253 34.1736C101.587 34.4552 100.851 34.596 100.045 34.596ZM110.538 34.596C109.59 34.596 108.861 34.34 108.349 33.828C107.837 33.316 107.581 32.5928 107.581 31.6584V22.1928H108.944V31.5816C108.944 32.1704 109.091 32.6248 109.386 32.9448C109.693 33.2648 110.128 33.4248 110.691 33.4248C111.293 33.4248 111.792 33.252 112.189 32.9064L112.669 33.8856C112.4 34.1288 112.074 34.308 111.69 34.4232C111.318 34.5384 110.934 34.596 110.538 34.596ZM105.776 25.5528V24.42H112.016V25.5528H105.776ZM126.3 34.6152C125.289 34.6152 124.355 34.4488 123.497 34.116C122.639 33.7704 121.897 33.2904 121.27 32.676C120.643 32.0616 120.15 31.3384 119.791 30.5064C119.446 29.6744 119.273 28.7656 119.273 27.78C119.273 26.7944 119.446 25.8856 119.791 25.0536C120.15 24.2216 120.643 23.4984 121.27 22.884C121.91 22.2696 122.659 21.796 123.516 21.4632C124.374 21.1176 125.308 20.9448 126.319 20.9448C127.292 20.9448 128.207 21.1112 129.065 21.444C129.923 21.764 130.646 22.2504 131.235 22.9032L130.332 23.8056C129.782 23.2424 129.174 22.8392 128.508 22.596C127.843 22.34 127.126 22.212 126.358 22.212C125.551 22.212 124.803 22.3528 124.111 22.6344C123.42 22.9032 122.819 23.2936 122.307 23.8056C121.795 24.3048 121.391 24.8936 121.097 25.572C120.815 26.2376 120.675 26.9736 120.675 27.78C120.675 28.5864 120.815 29.3288 121.097 30.0072C121.391 30.6728 121.795 31.2616 122.307 31.7736C122.819 32.2728 123.42 32.6632 124.111 32.9448C124.803 33.2136 125.551 33.348 126.358 33.348C127.126 33.348 127.843 33.22 128.508 32.964C129.174 32.708 129.782 32.2984 130.332 31.7352L131.235 32.6376C130.646 33.2904 129.923 33.7832 129.065 34.116C128.207 34.4488 127.286 34.6152 126.3 34.6152ZM133.975 34.5V20.2536H135.339V34.5H133.975ZM143.413 34.596C142.364 34.596 141.442 34.3784 140.648 33.9432C139.855 33.4952 139.234 32.8872 138.786 32.1192C138.338 31.3384 138.114 30.4488 138.114 29.4504C138.114 28.452 138.325 27.5688 138.748 26.8008C139.183 26.0328 139.772 25.4312 140.514 24.996C141.269 24.548 142.114 24.324 143.048 24.324C143.996 24.324 144.834 24.5416 145.564 24.9768C146.306 25.3992 146.888 26.0008 147.311 26.7816C147.733 27.5496 147.944 28.4392 147.944 29.4504C147.944 29.5144 147.938 29.5848 147.925 29.6616C147.925 29.7256 147.925 29.796 147.925 29.8728H139.151V28.8552H147.196L146.658 29.2584C146.658 28.5288 146.498 27.8824 146.178 27.3192C145.871 26.7432 145.448 26.2952 144.911 25.9752C144.373 25.6552 143.752 25.4952 143.048 25.4952C142.357 25.4952 141.736 25.6552 141.186 25.9752C140.636 26.2952 140.207 26.7432 139.9 27.3192C139.592 27.8952 139.439 28.5544 139.439 29.2968V29.508C139.439 30.276 139.605 30.9544 139.938 31.5432C140.284 32.1192 140.757 32.5736 141.359 32.9064C141.973 33.2264 142.671 33.3864 143.452 33.3864C144.066 33.3864 144.636 33.2776 145.16 33.06C145.698 32.8424 146.159 32.5096 146.543 32.0616L147.311 32.9448C146.863 33.4824 146.3 33.892 145.621 34.1736C144.956 34.4552 144.22 34.596 143.413 34.596ZM156.755 34.5V32.2728L156.697 31.908V28.1832C156.697 27.3256 156.454 26.6664 155.968 26.2056C155.494 25.7448 154.784 25.5144 153.836 25.5144C153.184 25.5144 152.563 25.6232 151.974 25.8408C151.385 26.0584 150.886 26.3464 150.476 26.7048L149.862 25.6872C150.374 25.252 150.988 24.9192 151.705 24.6888C152.422 24.4456 153.177 24.324 153.971 24.324C155.276 24.324 156.281 24.6504 156.985 25.3032C157.702 25.9432 158.06 26.9224 158.06 28.2408V34.5H156.755ZM153.28 34.596C152.524 34.596 151.865 34.4744 151.302 34.2312C150.752 33.9752 150.329 33.6296 150.035 33.1944C149.74 32.7464 149.593 32.2344 149.593 31.6584C149.593 31.1336 149.715 30.66 149.958 30.2376C150.214 29.8024 150.624 29.4568 151.187 29.2008C151.763 28.932 152.531 28.7976 153.491 28.7976H156.966V29.8152H153.529C152.556 29.8152 151.878 29.988 151.494 30.3336C151.123 30.6792 150.937 31.108 150.937 31.62C150.937 32.196 151.161 32.6568 151.609 33.0024C152.057 33.348 152.684 33.5208 153.491 33.5208C154.259 33.5208 154.918 33.348 155.468 33.0024C156.032 32.644 156.441 32.132 156.697 31.4664L157.004 32.4072C156.748 33.0728 156.3 33.604 155.66 34.0008C155.033 34.3976 154.24 34.596 153.28 34.596ZM166.909 24.324C167.728 24.324 168.445 24.484 169.059 24.804C169.686 25.1112 170.173 25.5848 170.518 26.2248C170.877 26.8648 171.056 27.6712 171.056 28.644V34.5H169.693V28.7784C169.693 27.716 169.424 26.916 168.886 26.3784C168.361 25.828 167.619 25.5528 166.659 25.5528C165.942 25.5528 165.315 25.7 164.777 25.9944C164.253 26.276 163.843 26.692 163.549 27.2424C163.267 27.78 163.126 28.4328 163.126 29.2008V34.5H161.763V24.42H163.069V27.1848L162.857 26.6664C163.177 25.9368 163.689 25.3672 164.393 24.9576C165.097 24.5352 165.936 24.324 166.909 24.324ZM174.738 34.5V24.42H176.101V34.5H174.738ZM175.429 22.1928C175.148 22.1928 174.911 22.0968 174.719 21.9048C174.527 21.7128 174.431 21.4824 174.431 21.2136C174.431 20.9448 174.527 20.7208 174.719 20.5416C174.911 20.3496 175.148 20.2536 175.429 20.2536C175.711 20.2536 175.948 20.3432 176.14 20.5224C176.332 20.7016 176.428 20.9256 176.428 21.1944C176.428 21.476 176.332 21.7128 176.14 21.9048C175.96 22.0968 175.724 22.1928 175.429 22.1928ZM185.04 24.324C185.859 24.324 186.576 24.484 187.19 24.804C187.817 25.1112 188.304 25.5848 188.649 26.2248C189.008 26.8648 189.187 27.6712 189.187 28.644V34.5H187.824V28.7784C187.824 27.716 187.555 26.916 187.017 26.3784C186.493 25.828 185.75 25.5528 184.79 25.5528C184.073 25.5528 183.446 25.7 182.909 25.9944C182.384 26.276 181.974 26.692 181.68 27.2424C181.398 27.78 181.257 28.4328 181.257 29.2008V34.5H179.894V24.42H181.2V27.1848L180.989 26.6664C181.309 25.9368 181.821 25.3672 182.525 24.9576C183.229 24.5352 184.067 24.324 185.04 24.324ZM197.17 38.3208C196.248 38.3208 195.365 38.1864 194.52 37.9176C193.676 37.6488 192.991 37.2648 192.466 36.7656L193.157 35.7288C193.631 36.1512 194.213 36.484 194.904 36.7272C195.608 36.9832 196.351 37.1112 197.132 37.1112C198.412 37.1112 199.352 36.8104 199.954 36.2088C200.556 35.62 200.856 34.6984 200.856 33.444V30.9288L201.048 29.2008L200.914 27.4728V24.42H202.22V33.2712C202.22 35.012 201.791 36.2856 200.933 37.092C200.088 37.9112 198.834 38.3208 197.17 38.3208ZM196.92 34.116C195.96 34.116 195.096 33.9112 194.328 33.5016C193.56 33.0792 192.952 32.4968 192.504 31.7544C192.069 31.012 191.852 30.1608 191.852 29.2008C191.852 28.2408 192.069 27.396 192.504 26.6664C192.952 25.924 193.56 25.348 194.328 24.9384C195.096 24.5288 195.96 24.324 196.92 24.324C197.816 24.324 198.623 24.5096 199.34 24.8808C200.056 25.252 200.626 25.8024 201.048 26.532C201.471 27.2616 201.682 28.1512 201.682 29.2008C201.682 30.2504 201.471 31.14 201.048 31.8696C200.626 32.5992 200.056 33.156 199.34 33.54C198.623 33.924 197.816 34.116 196.92 34.116ZM197.055 32.9064C197.797 32.9064 198.456 32.7528 199.032 32.4456C199.608 32.1256 200.063 31.6904 200.396 31.14C200.728 30.5768 200.895 29.9304 200.895 29.2008C200.895 28.4712 200.728 27.8312 200.396 27.2808C200.063 26.7304 199.608 26.3016 199.032 25.9944C198.456 25.6744 197.797 25.5144 197.055 25.5144C196.325 25.5144 195.666 25.6744 195.077 25.9944C194.501 26.3016 194.047 26.7304 193.714 27.2808C193.394 27.8312 193.234 28.4712 193.234 29.2008C193.234 29.9304 193.394 30.5768 193.714 31.14C194.047 31.6904 194.501 32.1256 195.077 32.4456C195.666 32.7528 196.325 32.9064 197.055 32.9064Z" fill="white"/>
<defs>
<radialGradient id="paint0_radial_2259_4182" cx="0" cy="0" r="1" gradientUnits="userSpaceOnUse" gradientTransform="translate(21.05 27.6) rotate(90) scale(22 21.3125)">
<stop offset="0.859375" stop-color="#1A1A1A" stop-opacity="0"/>
<stop offset="1" stop-color="#E23744"/>
</radialGradient>
</defs>
</svg>
