<svg width="31" height="32" viewBox="0 0 31 32" fill="none" xmlns="http://www.w3.org/2000/svg">
<path d="M23.1273 31.7561C22.7245 31.7557 22.331 31.6227 21.9971 31.3742L15.1976 26.3491C15.1641 26.3236 15.1243 26.3099 15.0836 26.3099C15.0429 26.3099 15.0032 26.3236 14.9697 26.3491L8.17016 31.3742C7.82872 31.6256 7.426 31.7565 7.01549 31.7495C6.60498 31.7426 6.20609 31.5981 5.87181 31.3353C5.53752 31.0725 5.28365 30.7037 5.1439 30.2781C5.00415 29.8524 4.98515 29.3899 5.0894 28.9521L7.3225 20.2688C7.33306 20.2251 7.33178 20.179 7.31882 20.1361C7.30586 20.0933 7.28179 20.0555 7.24958 20.0276L0.814622 14.4497C0.475864 14.1715 0.224581 13.7833 0.0960066 13.3396C-0.0325679 12.8959 -0.0319862 12.419 0.0976702 11.9757C0.227327 11.5324 0.479556 11.145 0.818991 10.8677C1.15843 10.5905 1.56805 10.4373 1.99041 10.4297L10.1936 10.088C10.234 10.0849 10.2726 10.069 10.305 10.0423C10.3373 10.0155 10.3619 9.97906 10.3759 9.93723L13.2015 1.46496C13.3439 1.03546 13.6026 0.664585 13.9425 0.402556C14.2824 0.140527 14.6871 0 15.1019 0C15.5166 0 15.9213 0.140527 16.2613 0.402556C16.6012 0.664585 16.8599 1.03546 17.0023 1.46496L19.8278 9.93723C19.8418 9.97906 19.8664 10.0155 19.8988 10.0423C19.9311 10.069 19.9698 10.0849 20.0101 10.088L28.2133 10.4297C28.6357 10.4373 29.0453 10.5905 29.3848 10.8677C29.7242 11.145 29.9764 11.5324 30.1061 11.9757C30.2357 12.419 30.2363 12.8959 30.1077 13.3396C29.9792 13.7833 29.7279 14.1715 29.3891 14.4497L22.9542 20.0276C22.921 20.0546 22.8962 20.0923 22.8831 20.1355C22.8701 20.1786 22.8694 20.2252 22.8812 20.2688L25.1143 28.9521C25.1927 29.2852 25.2005 29.6336 25.1371 29.9706C25.0736 30.3075 24.9407 30.6238 24.7486 30.8949C24.5564 31.166 24.3102 31.3847 24.0291 31.5341C23.7479 31.6834 23.4394 31.7594 23.1273 31.7561ZM15.0882 24.2989C15.4918 24.3125 15.8824 24.4596 16.2093 24.721L23.0089 29.746C23.0433 29.7749 23.0853 29.7907 23.1286 29.7911C23.1719 29.7915 23.2141 29.7764 23.249 29.7481C23.2838 29.7199 23.3095 29.6799 23.3221 29.6343C23.3346 29.5886 23.3335 29.5397 23.3188 29.4948L21.0857 20.8115C20.9758 20.3855 20.9839 19.9331 21.1089 19.5122C21.234 19.0914 21.4703 18.7214 21.7875 18.4497L28.2224 12.8719C28.2575 12.8447 28.2838 12.8058 28.2974 12.7609C28.311 12.7161 28.3112 12.6676 28.2979 12.6226C28.2846 12.5776 28.2586 12.5385 28.2237 12.511C28.1888 12.4835 28.1468 12.4691 28.104 12.4699L19.9007 12.1282C19.4991 12.1109 19.1112 11.9621 18.7865 11.7008C18.4618 11.4394 18.2151 11.0774 18.0778 10.6608L15.2523 2.18857C15.2395 2.14359 15.2141 2.10427 15.1797 2.07635C15.1452 2.04843 15.1036 2.03337 15.0609 2.03337C15.0181 2.03337 14.9765 2.04843 14.9421 2.07635C14.9076 2.10427 14.8822 2.14359 14.8694 2.18857L12.0712 10.6508C11.9339 11.0674 11.6872 11.4294 11.3625 11.6907C11.0379 11.9521 10.65 12.1008 10.2483 12.1181L2.0451 12.4598C2.00221 12.459 1.96023 12.4735 1.92532 12.501C1.89041 12.5285 1.86442 12.5676 1.85116 12.6125C1.8379 12.6575 1.83808 12.706 1.85166 12.7509C1.86524 12.7957 1.89151 12.8346 1.92661 12.8618L8.37069 18.4497C8.68691 18.7222 8.92249 19.0923 9.04746 19.5129C9.17243 19.9334 9.18115 20.3854 9.07252 20.8115L6.84854 29.4948C6.83526 29.5383 6.8352 29.5853 6.84836 29.6289C6.86151 29.6724 6.88717 29.71 6.92145 29.736C6.95447 29.7671 6.99649 29.7843 7.03994 29.7843C7.08339 29.7843 7.12541 29.7671 7.15843 29.736L13.958 24.7109C14.2903 24.4679 14.6803 24.3385 15.0791 24.3391L15.0882 24.2989Z" fill="white"/>
</svg>
